G04*
G04 #@! TF.GenerationSoftware,Altium Limited,Altium Designer,23.1.1 (15)*
G04*
G04 Layer_Color=128*
%FSLAX44Y44*%
%MOMM*%
G71*
G04*
G04 #@! TF.SameCoordinates,D6B2EDEF-5A9D-4844-A5D7-26F624485CE4*
G04*
G04*
G04 #@! TF.FilePolarity,Positive*
G04*
G01*
G75*
%ADD10C,0.1270*%
D10*
X468630Y807720D02*
X481330D01*
X474980Y801370D02*
Y814070D01*
X468630Y782320D02*
X481330D01*
X474980Y775970D02*
Y788670D01*
X796600Y910590D02*
X803600D01*
X800100Y907090D02*
Y914090D01*
X796600Y879590D02*
X803600D01*
X800100Y876090D02*
Y883090D01*
X1002610Y400050D02*
X1011610D01*
X1007110Y395550D02*
Y404550D01*
X1002610Y425450D02*
X1011610D01*
X1007110Y420950D02*
Y429950D01*
X1002610Y450850D02*
X1011610D01*
X1007110Y446350D02*
Y455350D01*
X1002610Y476250D02*
X1011610D01*
X1007110Y471750D02*
Y480750D01*
X1002610Y501650D02*
X1011610D01*
X1007110Y497150D02*
Y506150D01*
X1002610Y527050D02*
X1011610D01*
X1007110Y522550D02*
Y531550D01*
X1002610Y552450D02*
X1011610D01*
X1007110Y547950D02*
Y556950D01*
X1002610Y577850D02*
X1011610D01*
X1007110Y573350D02*
Y582350D01*
X1002610Y603250D02*
X1011610D01*
X1007110Y598750D02*
Y607750D01*
X1002610Y628650D02*
X1011610D01*
X1007110Y624150D02*
Y633150D01*
X1002610Y654050D02*
X1011610D01*
X1007110Y649550D02*
Y658550D01*
X1002610Y679450D02*
X1011610D01*
X1007110Y674950D02*
Y683950D01*
X1002610Y704850D02*
X1011610D01*
X1007110Y700350D02*
Y709350D01*
X1002610Y730250D02*
X1011610D01*
X1007110Y725750D02*
Y734750D01*
X1002610Y755650D02*
X1011610D01*
X1007110Y751150D02*
Y760150D01*
X1002610Y781050D02*
X1011610D01*
X1007110Y776550D02*
Y785550D01*
X1002610Y806450D02*
X1011610D01*
X1007110Y801950D02*
Y810950D01*
X1002610Y831850D02*
X1011610D01*
X1007110Y827350D02*
Y836350D01*
X1002610Y857250D02*
X1011610D01*
X1007110Y852750D02*
Y861750D01*
X1002610Y882650D02*
X1011610D01*
X1007110Y878150D02*
Y887150D01*
X850210Y400050D02*
X859210D01*
X854710Y395550D02*
Y404550D01*
X850210Y425450D02*
X859210D01*
X854710Y420950D02*
Y429950D01*
X850210Y450850D02*
X859210D01*
X854710Y446350D02*
Y455350D01*
X850210Y476250D02*
X859210D01*
X854710Y471750D02*
Y480750D01*
X850210Y501650D02*
X859210D01*
X854710Y497150D02*
Y506150D01*
X850210Y527050D02*
X859210D01*
X854710Y522550D02*
Y531550D01*
X850210Y552450D02*
X859210D01*
X854710Y547950D02*
Y556950D01*
X850210Y577850D02*
X859210D01*
X854710Y573350D02*
Y582350D01*
X850210Y603250D02*
X859210D01*
X854710Y598750D02*
Y607750D01*
X850210Y628650D02*
X859210D01*
X854710Y624150D02*
Y633150D01*
X850210Y654050D02*
X859210D01*
X854710Y649550D02*
Y658550D01*
X850210Y679450D02*
X859210D01*
X854710Y674950D02*
Y683950D01*
X850210Y704850D02*
X859210D01*
X854710Y700350D02*
Y709350D01*
X850210Y730250D02*
X859210D01*
X854710Y725750D02*
Y734750D01*
X850210Y755650D02*
X859210D01*
X854710Y751150D02*
Y760150D01*
X850210Y781050D02*
X859210D01*
X854710Y776550D02*
Y785550D01*
X850210Y806450D02*
X859210D01*
X854710Y801950D02*
Y810950D01*
X850210Y831850D02*
X859210D01*
X854710Y827350D02*
Y836350D01*
X850210Y857250D02*
X859210D01*
X854710Y852750D02*
Y861750D01*
X850210Y882650D02*
X859210D01*
X854710Y878150D02*
Y887150D01*
X730830Y680720D02*
X739830D01*
X735330Y676220D02*
Y685220D01*
X730830Y706120D02*
X739830D01*
X735330Y701620D02*
Y710620D01*
X730830Y731520D02*
X739830D01*
X735330Y727020D02*
Y736020D01*
X730830Y756920D02*
X739830D01*
X735330Y752420D02*
Y761420D01*
X730830Y782320D02*
X739830D01*
X735330Y777820D02*
Y786820D01*
X730830Y807720D02*
X739830D01*
X735330Y803220D02*
Y812220D01*
X1119320Y822960D02*
X1126320D01*
X1122820Y819460D02*
Y826460D01*
X1119320Y1000760D02*
X1126320D01*
X1122820Y997260D02*
Y1004260D01*
X1144720Y911860D02*
X1151720D01*
X1148220Y908360D02*
Y915360D01*
X1218010Y749300D02*
X1228010D01*
X1223010Y744300D02*
Y754300D01*
X1218010Y774700D02*
X1228010D01*
X1223010Y769700D02*
Y779700D01*
X1218010Y900430D02*
X1228010D01*
X1223010Y895430D02*
Y905430D01*
X1218010Y925830D02*
X1228010D01*
X1223010Y920830D02*
Y930830D01*
X1218010Y951230D02*
X1228010D01*
X1223010Y946230D02*
Y956230D01*
X1218010Y976630D02*
X1228010D01*
X1223010Y971630D02*
Y981630D01*
X1218010Y850900D02*
X1228010D01*
X1223010Y845900D02*
Y855900D01*
X1218010Y825500D02*
X1228010D01*
X1223010Y820500D02*
Y830500D01*
X1218010Y1027430D02*
X1228010D01*
X1223010Y1022430D02*
Y1032430D01*
X1218010Y800100D02*
X1228010D01*
X1223010Y795100D02*
Y805100D01*
X1218010Y1002030D02*
X1228010D01*
X1223010Y997030D02*
Y1007030D01*
X1218010Y1052830D02*
X1228010D01*
X1223010Y1047830D02*
Y1057830D01*
X1218010Y1078230D02*
X1228010D01*
X1223010Y1073230D02*
Y1083230D01*
X1218010Y723900D02*
X1228010D01*
X1223010Y718900D02*
Y728900D01*
X1218010Y698500D02*
X1228010D01*
X1223010Y693500D02*
Y703500D01*
X1218010Y876300D02*
X1228010D01*
X1223010Y871300D02*
Y881300D01*
X509580Y516890D02*
X516580D01*
X513080Y513390D02*
Y520390D01*
X509580Y440690D02*
X516580D01*
X513080Y437190D02*
Y444190D01*
X765870Y1096010D02*
X773370D01*
X769620Y1092260D02*
Y1099760D01*
X765870Y1083310D02*
X773370D01*
X769620Y1079560D02*
Y1087060D01*
X765870Y1070610D02*
X773370D01*
X769620Y1066860D02*
Y1074360D01*
X659480Y985060D02*
X671480D01*
X665480Y979060D02*
Y991060D01*
X659480Y1089660D02*
X671480D01*
X665480Y1083660D02*
Y1095660D01*
X449820Y945080D02*
X459820D01*
X454820Y940080D02*
Y950080D01*
X511820Y967580D02*
X521820D01*
X516820Y962580D02*
Y972580D01*
X511820Y947580D02*
X521820D01*
X516820Y942580D02*
Y952580D01*
X471820Y1007580D02*
X481820D01*
X476820Y1002580D02*
Y1012580D01*
X491820Y1007580D02*
X501820D01*
X496820Y1002580D02*
Y1012580D01*
X449820Y970080D02*
X459820D01*
X454820Y965080D02*
Y975080D01*
X509580Y695960D02*
X516580D01*
X513080Y692460D02*
Y699460D01*
X509580Y619760D02*
X516580D01*
X513080Y616260D02*
Y623260D01*
X868934Y1154430D02*
X876046D01*
X872490Y1150874D02*
Y1157986D01*
X868934Y1219200D02*
X876046D01*
X872490Y1215644D02*
Y1222756D01*
X1102614Y337820D02*
X1109726D01*
X1106170Y334264D02*
Y341376D01*
X686356Y807720D02*
X692356D01*
X689356Y804720D02*
Y810720D01*
X868210Y842528D02*
X874210D01*
X871210Y839528D02*
Y845528D01*
X739188Y858266D02*
X745188D01*
X742188Y855266D02*
Y861266D01*
X768604Y883920D02*
X775716D01*
X772160Y880364D02*
Y887476D01*
X774954Y763270D02*
X782066D01*
X778510Y759714D02*
Y766826D01*
X827024Y711200D02*
X834136D01*
X830580Y707644D02*
Y714756D01*
X1057450Y662940D02*
X1063450D01*
X1060450Y659940D02*
Y665940D01*
X657654Y782320D02*
X663654D01*
X660654Y779320D02*
Y785320D01*
X1071554Y702444D02*
X1077554D01*
X1074554Y699444D02*
Y705444D01*
X1198420Y850168D02*
X1204420D01*
X1201420Y847168D02*
Y853168D01*
X724154Y1080770D02*
X731266D01*
X727710Y1077214D02*
Y1084326D01*
X762254Y963930D02*
X769366D01*
X765810Y960374D02*
Y967486D01*
X703834Y1089660D02*
X710946D01*
X707390Y1086104D02*
Y1093216D01*
X848614Y1016000D02*
X855726D01*
X852170Y1012444D02*
Y1019556D01*
X866442Y1038822D02*
X872442D01*
X869442Y1035822D02*
Y1041822D01*
X807974Y1038860D02*
X815086D01*
X811530Y1035304D02*
Y1042416D01*
X984552Y1040515D02*
X990552D01*
X987552Y1037515D02*
Y1043514D01*
M02*
