G04*
G04 #@! TF.GenerationSoftware,Altium Limited,Altium Designer,23.1.1 (15)*
G04*
G04 Layer_Physical_Order=2*
G04 Layer_Color=16711680*
%FSLAX44Y44*%
%MOMM*%
G71*
G04*
G04 #@! TF.SameCoordinates,D6B2EDEF-5A9D-4844-A5D7-26F624485CE4*
G04*
G04*
G04 #@! TF.FilePolarity,Positive*
G04*
G01*
G75*
%ADD14C,0.2540*%
%ADD17R,1.1000X1.7000*%
%ADD19R,1.5000X1.3000*%
%ADD47C,0.8000*%
%ADD48C,1.7780*%
%ADD49C,1.3000*%
%ADD50C,1.5000*%
%ADD51R,1.5000X1.5000*%
%ADD52R,1.5000X1.5000*%
%ADD53R,1.2000X1.2000*%
%ADD54C,1.2000*%
%ADD55O,2.0000X1.0000*%
%ADD56R,2.0000X1.0000*%
%ADD57C,2.0000*%
%ADD58R,2.0000X2.0000*%
%ADD59O,2.0000X4.5000*%
%ADD60O,2.0000X4.0000*%
%ADD61O,4.0000X2.0000*%
%ADD62C,1.5000*%
%ADD63C,1.2700*%
%ADD64C,1.0000*%
G36*
X1594167Y272333D02*
X406953D01*
Y1259547D01*
X1594167D01*
Y272333D01*
D02*
G37*
%LPC*%
G36*
X1550560Y1237313D02*
X1546390Y1236902D01*
X1542381Y1235686D01*
X1538686Y1233711D01*
X1535447Y1231053D01*
X1532789Y1227814D01*
X1530814Y1224119D01*
X1529598Y1220110D01*
X1529187Y1215940D01*
X1529598Y1211770D01*
X1530814Y1207761D01*
X1532789Y1204066D01*
X1535447Y1200827D01*
X1538686Y1198169D01*
X1542381Y1196194D01*
X1546390Y1194978D01*
X1550560Y1194567D01*
X1554730Y1194978D01*
X1558739Y1196194D01*
X1562434Y1198169D01*
X1565673Y1200827D01*
X1568331Y1204066D01*
X1570306Y1207761D01*
X1571522Y1211770D01*
X1571933Y1215940D01*
X1571522Y1220110D01*
X1570306Y1224119D01*
X1568331Y1227814D01*
X1565673Y1231053D01*
X1562434Y1233711D01*
X1558739Y1235686D01*
X1554730Y1236902D01*
X1550560Y1237313D01*
D02*
G37*
G36*
X450560D02*
X446390Y1236902D01*
X442381Y1235686D01*
X438686Y1233711D01*
X435447Y1231053D01*
X432789Y1227814D01*
X430814Y1224119D01*
X429598Y1220110D01*
X429187Y1215940D01*
X429598Y1211770D01*
X430814Y1207761D01*
X432789Y1204066D01*
X435447Y1200827D01*
X438686Y1198169D01*
X442381Y1196194D01*
X446390Y1194978D01*
X450560Y1194567D01*
X454730Y1194978D01*
X458739Y1196194D01*
X462434Y1198169D01*
X465673Y1200827D01*
X468331Y1204066D01*
X470306Y1207761D01*
X471522Y1211770D01*
X471933Y1215940D01*
X471522Y1220110D01*
X470306Y1224119D01*
X468331Y1227814D01*
X465673Y1231053D01*
X462434Y1233711D01*
X458739Y1235686D01*
X454730Y1236902D01*
X450560Y1237313D01*
D02*
G37*
G36*
X873984Y1230550D02*
X870996D01*
X868109Y1229777D01*
X865521Y1228282D01*
X863408Y1226169D01*
X861914Y1223581D01*
X861140Y1220694D01*
Y1217706D01*
X861914Y1214819D01*
X863408Y1212231D01*
X863412Y1212226D01*
Y1161404D01*
X863408Y1161399D01*
X861914Y1158811D01*
X861140Y1155924D01*
Y1152936D01*
X861914Y1150049D01*
X863408Y1147461D01*
X865521Y1145348D01*
X868109Y1143854D01*
X870996Y1143080D01*
X873984D01*
X876871Y1143854D01*
X879459Y1145348D01*
X881572Y1147461D01*
X883066Y1150049D01*
X883840Y1152936D01*
Y1155924D01*
X883066Y1158811D01*
X881572Y1161399D01*
X881568Y1161404D01*
Y1212226D01*
X881572Y1212231D01*
X883066Y1214819D01*
X883840Y1217706D01*
Y1220694D01*
X883066Y1223581D01*
X881572Y1226169D01*
X879459Y1228282D01*
X876871Y1229777D01*
X873984Y1230550D01*
D02*
G37*
G36*
X1238390Y1185797D02*
X1233483Y1185411D01*
X1228697Y1184261D01*
X1224150Y1182378D01*
X1219953Y1179806D01*
X1216210Y1176610D01*
X1213014Y1172867D01*
X1210442Y1168670D01*
X1208559Y1164123D01*
X1207410Y1159337D01*
X1207023Y1154430D01*
X1207410Y1149523D01*
X1208559Y1144737D01*
X1210442Y1140190D01*
X1213014Y1135993D01*
X1216210Y1132250D01*
X1219953Y1129054D01*
X1224150Y1126482D01*
X1228697Y1124598D01*
X1233483Y1123449D01*
X1238390Y1123063D01*
X1243297Y1123449D01*
X1248083Y1124598D01*
X1252630Y1126482D01*
X1256827Y1129054D01*
X1260570Y1132250D01*
X1263766Y1135993D01*
X1266338Y1140190D01*
X1268222Y1144737D01*
X1269370Y1149523D01*
X1269757Y1154430D01*
X1269370Y1159337D01*
X1268222Y1164123D01*
X1266338Y1168670D01*
X1263766Y1172867D01*
X1260570Y1176610D01*
X1256827Y1179806D01*
X1252630Y1182378D01*
X1248083Y1184261D01*
X1243297Y1185411D01*
X1238390Y1185797D01*
D02*
G37*
G36*
X1545323Y1185489D02*
X1540416Y1185102D01*
X1535630Y1183953D01*
X1531083Y1182070D01*
X1526886Y1179498D01*
X1523143Y1176302D01*
X1519947Y1172559D01*
X1517375Y1168362D01*
X1515491Y1163815D01*
X1514342Y1159029D01*
X1513956Y1154122D01*
X1514342Y1149215D01*
X1515491Y1144429D01*
X1517375Y1139882D01*
X1519947Y1135685D01*
X1523143Y1131942D01*
X1526886Y1128746D01*
X1531083Y1126174D01*
X1535630Y1124290D01*
X1540416Y1123141D01*
X1545323Y1122755D01*
X1550230Y1123141D01*
X1555016Y1124290D01*
X1559563Y1126174D01*
X1563760Y1128746D01*
X1567502Y1131942D01*
X1570699Y1135685D01*
X1573271Y1139882D01*
X1575154Y1144429D01*
X1576303Y1149215D01*
X1576689Y1154122D01*
X1576303Y1159029D01*
X1575154Y1163815D01*
X1573271Y1168362D01*
X1570699Y1172559D01*
X1567502Y1176302D01*
X1563760Y1179498D01*
X1559563Y1182070D01*
X1555016Y1183953D01*
X1550230Y1185102D01*
X1545323Y1185489D01*
D02*
G37*
G36*
X774620Y1106096D02*
X764620D01*
X762010Y1105753D01*
X759577Y1104745D01*
X757488Y1103142D01*
X755885Y1101053D01*
X754877Y1098621D01*
X754534Y1096010D01*
X754843Y1093658D01*
X754120Y1092388D01*
X731522D01*
X729298Y1092095D01*
X729204Y1092120D01*
X726216D01*
X723329Y1091347D01*
X720741Y1089852D01*
X720010Y1089121D01*
X718740Y1089647D01*
Y1091154D01*
X717967Y1094041D01*
X716472Y1096629D01*
X714359Y1098742D01*
X711771Y1100237D01*
X708884Y1101010D01*
X705896D01*
X703009Y1100237D01*
X700421Y1098742D01*
X698308Y1096629D01*
X696814Y1094041D01*
X696040Y1091154D01*
Y1088166D01*
X696814Y1085279D01*
X698308Y1082691D01*
X699212Y1081787D01*
Y1072251D01*
X699521Y1069901D01*
X700428Y1067712D01*
X701870Y1065832D01*
X768121Y999581D01*
X767635Y998408D01*
X696620D01*
X694270Y998098D01*
X692081Y997191D01*
X690201Y995749D01*
X681645Y987193D01*
X680267Y987611D01*
X679903Y989436D01*
X678773Y992165D01*
X677131Y994622D01*
X675042Y996712D01*
X672585Y998353D01*
X669855Y999484D01*
X666957Y1000060D01*
X664003D01*
X663431Y999947D01*
X623527Y1039851D01*
X621647Y1041293D01*
X619458Y1042200D01*
X617108Y1042510D01*
X469900D01*
X469900Y1042510D01*
X467551Y1042200D01*
X465361Y1041293D01*
X463481Y1039851D01*
X463481Y1039851D01*
X448401Y1024771D01*
X446959Y1022891D01*
X446052Y1020702D01*
X445742Y1018352D01*
Y982035D01*
X444162Y980738D01*
X442288Y978454D01*
X440895Y975848D01*
X440037Y973020D01*
X439748Y970080D01*
Y945080D01*
X440037Y942140D01*
X440895Y939312D01*
X442288Y936706D01*
X444162Y934422D01*
X446446Y932548D01*
X449052Y931155D01*
X451880Y930297D01*
X454820Y930007D01*
X457761Y930297D01*
X460588Y931155D01*
X463194Y932548D01*
X465478Y934422D01*
X467352Y936706D01*
X468745Y939312D01*
X469603Y942140D01*
X469893Y945080D01*
Y970080D01*
X469603Y973020D01*
X468745Y975848D01*
X467352Y978454D01*
X465478Y980738D01*
X463898Y982035D01*
Y997679D01*
X465168Y998134D01*
X466162Y996922D01*
X468446Y995048D01*
X471052Y993655D01*
X473880Y992797D01*
X476820Y992507D01*
X496820D01*
X499760Y992797D01*
X502588Y993655D01*
X505194Y995048D01*
X507478Y996922D01*
X509352Y999206D01*
X510745Y1001812D01*
X511603Y1004639D01*
X511893Y1007580D01*
X511603Y1010520D01*
X510745Y1013348D01*
X509352Y1015954D01*
X507478Y1018238D01*
X505194Y1020112D01*
X502588Y1021505D01*
X499760Y1022363D01*
X496820Y1022653D01*
X476820D01*
X473880Y1022363D01*
X473284Y1022182D01*
X472611Y1023305D01*
X473660Y1024354D01*
X613348D01*
X650594Y987109D01*
X650480Y986538D01*
Y983583D01*
X651057Y980685D01*
X652187Y977955D01*
X653736Y975638D01*
X653766Y975203D01*
X653405Y974126D01*
X652911Y973922D01*
X651031Y972479D01*
X616508Y937956D01*
X529811D01*
X529268Y939104D01*
X529352Y939206D01*
X530745Y941812D01*
X531603Y944640D01*
X531893Y947580D01*
Y967580D01*
X531603Y970520D01*
X530745Y973348D01*
X529352Y975954D01*
X527478Y978238D01*
X525194Y980112D01*
X522588Y981505D01*
X519760Y982363D01*
X516820Y982653D01*
X513879Y982363D01*
X511052Y981505D01*
X508446Y980112D01*
X506162Y978238D01*
X504287Y975954D01*
X502895Y973348D01*
X502037Y970520D01*
X501747Y967580D01*
Y947580D01*
X502037Y944640D01*
X502895Y941812D01*
X504287Y939206D01*
X506162Y936922D01*
X507742Y935625D01*
Y928878D01*
X508052Y926528D01*
X508958Y924339D01*
X510401Y922459D01*
X512281Y921016D01*
X514470Y920110D01*
X516820Y919800D01*
X720432D01*
X728842Y911390D01*
X728316Y910120D01*
X728170D01*
Y885026D01*
X720140Y876996D01*
X560578D01*
X560578Y876996D01*
X558229Y876686D01*
X556039Y875779D01*
X554159Y874337D01*
X490013Y810191D01*
X488596Y810570D01*
X487923Y813081D01*
X486095Y816249D01*
X483509Y818835D01*
X480341Y820663D01*
X476809Y821610D01*
X473151D01*
X469619Y820663D01*
X467294Y819321D01*
X466024Y820054D01*
Y821740D01*
X528778Y884494D01*
X701170D01*
Y883120D01*
X722170D01*
Y910120D01*
X701170D01*
Y902650D01*
X525018D01*
X522668Y902340D01*
X520479Y901433D01*
X518599Y899991D01*
X450527Y831919D01*
X449085Y830039D01*
X448178Y827849D01*
X447868Y825500D01*
Y692404D01*
X448178Y690055D01*
X449085Y687865D01*
X450527Y685985D01*
X476181Y660331D01*
X478061Y658888D01*
X480251Y657982D01*
X482600Y657672D01*
X482600Y657672D01*
X523544D01*
X635185Y546031D01*
X637065Y544589D01*
X639254Y543682D01*
X641604Y543372D01*
X846110D01*
X847035Y542448D01*
X849885Y540802D01*
X851357Y540407D01*
Y539093D01*
X849885Y538698D01*
X847035Y537052D01*
X844707Y534725D01*
X843062Y531875D01*
X842210Y528696D01*
Y525404D01*
X843062Y522225D01*
X844707Y519375D01*
X847035Y517048D01*
X849885Y515402D01*
X851357Y515007D01*
Y513693D01*
X849885Y513298D01*
X847035Y511652D01*
X844707Y509325D01*
X843062Y506475D01*
X842210Y503296D01*
Y500004D01*
X843062Y496825D01*
X844707Y493975D01*
X847035Y491647D01*
X849885Y490002D01*
X851357Y489607D01*
Y488293D01*
X849885Y487898D01*
X847035Y486253D01*
X844707Y483925D01*
X843062Y481075D01*
X842210Y477896D01*
Y474604D01*
X843062Y471425D01*
X844707Y468575D01*
X847035Y466247D01*
X849885Y464602D01*
X851357Y464207D01*
Y462893D01*
X849885Y462498D01*
X847035Y460853D01*
X844707Y458525D01*
X843062Y455675D01*
X842210Y452496D01*
Y449204D01*
X843062Y446025D01*
X844707Y443175D01*
X847035Y440848D01*
X849885Y439202D01*
X851357Y438807D01*
Y437493D01*
X849885Y437098D01*
X847035Y435452D01*
X844707Y433125D01*
X843062Y430275D01*
X842210Y427096D01*
Y425788D01*
X831781Y415359D01*
X830339Y413479D01*
X829432Y411289D01*
X829122Y408940D01*
Y372872D01*
X829432Y370523D01*
X830339Y368333D01*
X831781Y366453D01*
X917830Y280404D01*
X920173Y278061D01*
X920905Y277500D01*
X921602Y276897D01*
X921842Y276781D01*
X922053Y276618D01*
X922905Y276266D01*
X923735Y275864D01*
X923997Y275814D01*
X924243Y275712D01*
X925157Y275591D01*
X926063Y275418D01*
X952936Y273848D01*
X953201Y273867D01*
X953465Y273832D01*
X1280815D01*
X1283165Y274142D01*
X1285354Y275049D01*
X1287234Y276491D01*
X1299294Y288551D01*
X1299815Y289230D01*
X1300385Y289870D01*
X1300534Y290167D01*
X1300737Y290431D01*
X1301064Y291222D01*
X1301449Y291987D01*
X1301516Y292313D01*
X1301644Y292620D01*
X1301755Y293470D01*
X1301929Y294308D01*
X1302770Y305817D01*
X1302769Y305831D01*
X1302772Y305846D01*
X1309422Y401080D01*
X1309385Y401673D01*
X1309633Y406092D01*
X1309581Y407029D01*
X1309593Y407130D01*
X1302656Y876984D01*
X1302494Y878090D01*
X1302348Y879200D01*
X1302322Y879262D01*
X1302312Y879329D01*
X1301869Y880356D01*
X1301441Y881389D01*
X1301400Y881443D01*
X1301373Y881505D01*
X1300680Y882382D01*
X1299998Y883269D01*
X1251019Y932249D01*
X1249139Y933691D01*
X1246949Y934598D01*
X1244600Y934908D01*
X1233576D01*
X1231539Y936945D01*
X1229893Y937895D01*
Y939165D01*
X1231539Y940115D01*
X1234125Y942701D01*
X1235953Y945869D01*
X1236900Y949401D01*
Y953059D01*
X1235953Y956591D01*
X1234125Y959759D01*
X1231539Y962345D01*
X1229893Y963295D01*
Y964565D01*
X1231539Y965515D01*
X1234125Y968101D01*
X1235953Y971269D01*
X1236900Y974801D01*
Y977682D01*
X1247463Y988245D01*
X1248905Y990125D01*
X1249812Y992315D01*
X1250122Y994664D01*
X1250122Y994664D01*
Y1096010D01*
X1249812Y1098360D01*
X1248905Y1100549D01*
X1247463Y1102429D01*
X1247209Y1102683D01*
X1245329Y1104126D01*
X1243139Y1105032D01*
X1240790Y1105342D01*
X1043301D01*
X1040952Y1105032D01*
X1038763Y1104126D01*
X1036883Y1102683D01*
X984157Y1049958D01*
X983692Y1049833D01*
X981412Y1048516D01*
X979550Y1046655D01*
X978233Y1044374D01*
X977552Y1041831D01*
Y1039198D01*
X978233Y1036655D01*
X979550Y1034374D01*
X981412Y1032513D01*
X983692Y1031196D01*
X986236Y1030515D01*
X988868D01*
X991412Y1031196D01*
X993692Y1032513D01*
X995554Y1034374D01*
X996870Y1036655D01*
X996995Y1037120D01*
X1047061Y1087186D01*
X1110757D01*
X1110933Y1086845D01*
X1111093Y1085916D01*
X1109441Y1084649D01*
X1072611Y1047819D01*
X1071169Y1045939D01*
X1070262Y1043749D01*
X1069952Y1041400D01*
Y937753D01*
X1068682Y937147D01*
X1066863Y937900D01*
X1064514Y938210D01*
X823167D01*
X822681Y939383D01*
X839539Y956241D01*
X875861Y992563D01*
X875861Y992563D01*
X877303Y994443D01*
X878210Y996633D01*
X878520Y998982D01*
Y1034545D01*
X878761Y1034962D01*
X879442Y1037505D01*
Y1040138D01*
X878761Y1042682D01*
X877444Y1044962D01*
X875582Y1046824D01*
X873302Y1048140D01*
X870759Y1048822D01*
X868126D01*
X865582Y1048140D01*
X863302Y1046824D01*
X861440Y1044962D01*
X860124Y1042682D01*
X859442Y1040138D01*
Y1037505D01*
X860124Y1034962D01*
X860364Y1034545D01*
Y1025516D01*
X859771Y1025270D01*
X859094Y1025108D01*
X856551Y1026577D01*
X853664Y1027350D01*
X850676D01*
X847789Y1026577D01*
X846180Y1025648D01*
X837580D01*
X822880Y1040348D01*
Y1040354D01*
X822106Y1043241D01*
X820612Y1045829D01*
X818499Y1047942D01*
X815911Y1049436D01*
X813024Y1050210D01*
X810036D01*
X807149Y1049436D01*
X804561Y1047942D01*
X802448Y1045829D01*
X800954Y1043241D01*
X800180Y1040354D01*
Y1037366D01*
X800954Y1034479D01*
X802448Y1031891D01*
X804561Y1029778D01*
X807149Y1028283D01*
X810036Y1027510D01*
X810042D01*
X827401Y1010151D01*
X829281Y1008708D01*
X831470Y1007802D01*
X833820Y1007492D01*
X844626D01*
X845201Y1006918D01*
X847789Y1005424D01*
X850676Y1004650D01*
X853664D01*
X856551Y1005424D01*
X859094Y1006892D01*
X859771Y1006730D01*
X860364Y1006484D01*
Y1002742D01*
X829360Y971738D01*
X821640D01*
X724927Y1068450D01*
X725585Y1069589D01*
X726216Y1069420D01*
X729204D01*
X732091Y1070193D01*
X734679Y1071688D01*
X736792Y1073801D01*
X737041Y1074232D01*
X754620D01*
Y1060610D01*
X784620D01*
Y1080610D01*
X784620Y1080610D01*
X784620D01*
X784518Y1081880D01*
X784706Y1083310D01*
X784363Y1085920D01*
X783355Y1088353D01*
X782352Y1089660D01*
X783355Y1090967D01*
X784363Y1093400D01*
X784706Y1096010D01*
X784363Y1098621D01*
X783355Y1101053D01*
X781752Y1103142D01*
X779663Y1104745D01*
X777231Y1105753D01*
X774620Y1106096D01*
D02*
G37*
G36*
X680480Y1104660D02*
X650480D01*
Y1074660D01*
X680480D01*
Y1104660D01*
D02*
G37*
G36*
X514528Y630760D02*
X511632D01*
X508834Y630010D01*
X506326Y628562D01*
X504278Y626514D01*
X502830Y624006D01*
X502080Y621208D01*
Y618312D01*
X502830Y615514D01*
X504278Y613006D01*
X506326Y610958D01*
X508834Y609510D01*
X511632Y608760D01*
X514528D01*
X517326Y609510D01*
X519834Y610958D01*
X521882Y613006D01*
X523330Y615514D01*
X524080Y618312D01*
Y621208D01*
X523330Y624006D01*
X521882Y626514D01*
X519834Y628562D01*
X517326Y630010D01*
X514528Y630760D01*
D02*
G37*
G36*
X524080Y527890D02*
X502080D01*
Y505890D01*
X524080D01*
Y527890D01*
D02*
G37*
G36*
X514528Y451690D02*
X511632D01*
X508834Y450940D01*
X506326Y449492D01*
X504278Y447444D01*
X502830Y444936D01*
X502080Y442138D01*
Y439242D01*
X502830Y436444D01*
X504278Y433936D01*
X506326Y431888D01*
X508834Y430440D01*
X511632Y429690D01*
X514528D01*
X517326Y430440D01*
X519834Y431888D01*
X521882Y433936D01*
X523330Y436444D01*
X524080Y439242D01*
Y442138D01*
X523330Y444936D01*
X521882Y447444D01*
X519834Y449492D01*
X517326Y450940D01*
X514528Y451690D01*
D02*
G37*
G36*
X1544053Y438729D02*
X1539146Y438343D01*
X1534360Y437193D01*
X1529813Y435310D01*
X1525616Y432738D01*
X1521873Y429542D01*
X1518677Y425799D01*
X1516105Y421602D01*
X1514221Y417055D01*
X1513072Y412269D01*
X1512686Y407362D01*
X1513072Y402455D01*
X1514221Y397669D01*
X1516105Y393122D01*
X1518677Y388925D01*
X1521873Y385182D01*
X1525616Y381986D01*
X1529813Y379414D01*
X1534360Y377531D01*
X1539146Y376381D01*
X1544053Y375995D01*
X1548960Y376381D01*
X1553746Y377531D01*
X1558293Y379414D01*
X1562490Y381986D01*
X1566232Y385182D01*
X1569429Y388925D01*
X1572001Y393122D01*
X1573884Y397669D01*
X1575033Y402455D01*
X1575419Y407362D01*
X1575033Y412269D01*
X1573884Y417055D01*
X1572001Y421602D01*
X1569429Y425799D01*
X1566232Y429542D01*
X1562490Y432738D01*
X1558293Y435310D01*
X1553746Y437193D01*
X1548960Y438343D01*
X1544053Y438729D01*
D02*
G37*
G36*
X1550560Y337313D02*
X1546390Y336902D01*
X1542381Y335686D01*
X1538686Y333711D01*
X1535447Y331053D01*
X1532789Y327814D01*
X1530814Y324119D01*
X1529598Y320110D01*
X1529187Y315940D01*
X1529598Y311770D01*
X1530814Y307761D01*
X1532789Y304066D01*
X1535447Y300827D01*
X1538686Y298169D01*
X1542381Y296194D01*
X1546390Y294978D01*
X1550560Y294567D01*
X1554730Y294978D01*
X1558739Y296194D01*
X1562434Y298169D01*
X1565673Y300827D01*
X1568331Y304066D01*
X1570306Y307761D01*
X1571522Y311770D01*
X1571933Y315940D01*
X1571522Y320110D01*
X1570306Y324119D01*
X1568331Y327814D01*
X1565673Y331053D01*
X1562434Y333711D01*
X1558739Y335686D01*
X1554730Y336902D01*
X1550560Y337313D01*
D02*
G37*
G36*
X450560D02*
X446390Y336902D01*
X442381Y335686D01*
X438686Y333711D01*
X435447Y331053D01*
X432789Y327814D01*
X430814Y324119D01*
X429598Y320110D01*
X429187Y315940D01*
X429598Y311770D01*
X430814Y307761D01*
X432789Y304066D01*
X435447Y300827D01*
X438686Y298169D01*
X442381Y296194D01*
X446390Y294978D01*
X450560Y294567D01*
X454730Y294978D01*
X458739Y296194D01*
X462434Y298169D01*
X465673Y300827D01*
X468331Y304066D01*
X470306Y307761D01*
X471522Y311770D01*
X471933Y315940D01*
X471522Y320110D01*
X470306Y324119D01*
X468331Y327814D01*
X465673Y331053D01*
X462434Y333711D01*
X458739Y335686D01*
X454730Y336902D01*
X450560Y337313D01*
D02*
G37*
%LPD*%
G36*
X1552806Y1224322D02*
X1554899Y1223455D01*
X1556696Y1222076D01*
X1558075Y1220279D01*
X1558942Y1218186D01*
X1559237Y1215940D01*
X1558942Y1213694D01*
X1558075Y1211601D01*
X1556696Y1209804D01*
X1554899Y1208425D01*
X1552806Y1207558D01*
X1550560Y1207263D01*
X1548314Y1207558D01*
X1546221Y1208425D01*
X1544424Y1209804D01*
X1543045Y1211601D01*
X1542178Y1213694D01*
X1541883Y1215940D01*
X1542178Y1218186D01*
X1543045Y1220279D01*
X1544424Y1222076D01*
X1546221Y1223455D01*
X1548314Y1224322D01*
X1550560Y1224617D01*
X1552806Y1224322D01*
D02*
G37*
G36*
X452806D02*
X454899Y1223455D01*
X456696Y1222076D01*
X458075Y1220279D01*
X458942Y1218186D01*
X459237Y1215940D01*
X458942Y1213694D01*
X458075Y1211601D01*
X456696Y1209804D01*
X454899Y1208425D01*
X452806Y1207558D01*
X450560Y1207263D01*
X448314Y1207558D01*
X446221Y1208425D01*
X444424Y1209804D01*
X443045Y1211601D01*
X442178Y1213694D01*
X441883Y1215940D01*
X442178Y1218186D01*
X443045Y1220279D01*
X444424Y1222076D01*
X446221Y1223455D01*
X448314Y1224322D01*
X450560Y1224617D01*
X452806Y1224322D01*
D02*
G37*
G36*
X1242037Y1172764D02*
X1245544Y1171700D01*
X1248775Y1169973D01*
X1251608Y1167648D01*
X1253933Y1164815D01*
X1255660Y1161583D01*
X1256724Y1158077D01*
X1257083Y1154430D01*
X1256724Y1150783D01*
X1255660Y1147277D01*
X1253933Y1144045D01*
X1251608Y1141212D01*
X1248775Y1138887D01*
X1245544Y1137160D01*
X1242037Y1136096D01*
X1238390Y1135737D01*
X1234743Y1136096D01*
X1231236Y1137160D01*
X1228005Y1138887D01*
X1225172Y1141212D01*
X1222847Y1144045D01*
X1221120Y1147277D01*
X1220056Y1150783D01*
X1219697Y1154430D01*
X1220056Y1158077D01*
X1221120Y1161583D01*
X1222847Y1164815D01*
X1225172Y1167648D01*
X1228005Y1169973D01*
X1231236Y1171700D01*
X1234743Y1172764D01*
X1238390Y1173123D01*
X1242037Y1172764D01*
D02*
G37*
G36*
X1548970Y1172456D02*
X1552476Y1171392D01*
X1555708Y1169665D01*
X1558541Y1167340D01*
X1560865Y1164507D01*
X1562593Y1161275D01*
X1563657Y1157769D01*
X1564016Y1154122D01*
X1563657Y1150475D01*
X1562593Y1146968D01*
X1560865Y1143737D01*
X1558541Y1140904D01*
X1555708Y1138579D01*
X1552476Y1136852D01*
X1548970Y1135788D01*
X1545323Y1135429D01*
X1541676Y1135788D01*
X1538169Y1136852D01*
X1534937Y1138579D01*
X1532105Y1140904D01*
X1529780Y1143737D01*
X1528053Y1146968D01*
X1526989Y1150475D01*
X1526630Y1154122D01*
X1526989Y1157769D01*
X1528053Y1161275D01*
X1529780Y1164507D01*
X1532105Y1167340D01*
X1534937Y1169665D01*
X1538169Y1171392D01*
X1541676Y1172456D01*
X1545323Y1172815D01*
X1548970Y1172456D01*
D02*
G37*
G36*
X1214481Y1067115D02*
X1216127Y1066165D01*
Y1064895D01*
X1214481Y1063945D01*
X1211895Y1061359D01*
X1210067Y1058191D01*
X1209120Y1054659D01*
Y1051001D01*
X1210067Y1047469D01*
X1211895Y1044301D01*
X1214481Y1041715D01*
X1216127Y1040765D01*
Y1039495D01*
X1214481Y1038545D01*
X1212444Y1036508D01*
X1149490D01*
X1147141Y1036198D01*
X1144951Y1035292D01*
X1143071Y1033849D01*
X1120840Y1011617D01*
X1118574Y1011010D01*
X1116066Y1009562D01*
X1114018Y1007514D01*
X1112570Y1005006D01*
X1111820Y1002208D01*
Y999312D01*
X1112570Y996514D01*
X1114018Y994006D01*
X1116066Y991958D01*
X1118574Y990510D01*
X1121372Y989760D01*
X1124268D01*
X1127066Y990510D01*
X1129574Y991958D01*
X1131622Y994006D01*
X1133071Y996514D01*
X1133678Y998780D01*
X1153250Y1018352D01*
X1212444D01*
X1214481Y1016315D01*
X1216127Y1015365D01*
Y1014095D01*
X1214481Y1013145D01*
X1211895Y1010559D01*
X1210067Y1007391D01*
X1209120Y1003859D01*
Y1000978D01*
X1162743Y954601D01*
X1161301Y952721D01*
X1160394Y950531D01*
X1160084Y948182D01*
Y914990D01*
X1158814Y914823D01*
X1158471Y916106D01*
X1157022Y918614D01*
X1154974Y920662D01*
X1152466Y922110D01*
X1149668Y922860D01*
X1146772D01*
X1143974Y922110D01*
X1141943Y920938D01*
X1100620D01*
X1100620Y920938D01*
X1098271Y920628D01*
X1096081Y919722D01*
X1094201Y918279D01*
X1094201Y918279D01*
X1089281Y913359D01*
X1088108Y913845D01*
Y914616D01*
Y1037640D01*
X1119620Y1069152D01*
X1212444D01*
X1214481Y1067115D01*
D02*
G37*
G36*
X1069952Y910856D02*
Y903770D01*
X1068530D01*
Y876770D01*
X1089530D01*
Y887932D01*
X1104380Y902782D01*
X1141943D01*
X1143974Y901610D01*
X1145405Y901226D01*
X1145734Y899999D01*
X1058857Y813123D01*
X1057414Y811243D01*
X1056508Y809053D01*
X1056198Y806704D01*
Y792176D01*
X1020783Y756761D01*
X1020186Y757009D01*
X1019591Y757365D01*
X1018758Y760475D01*
X1017113Y763325D01*
X1014785Y765652D01*
X1011935Y767298D01*
X1010463Y767693D01*
Y769007D01*
X1011935Y769402D01*
X1014785Y771048D01*
X1017113Y773375D01*
X1018758Y776225D01*
X1019610Y779404D01*
Y782696D01*
X1018758Y785875D01*
X1017113Y788725D01*
X1014785Y791052D01*
X1011935Y792698D01*
X1010463Y793093D01*
Y794407D01*
X1011935Y794802D01*
X1014785Y796448D01*
X1017113Y798775D01*
X1018758Y801625D01*
X1019610Y804804D01*
Y808096D01*
X1018758Y811275D01*
X1017113Y814125D01*
X1014785Y816452D01*
X1011935Y818098D01*
X1010463Y818493D01*
Y819807D01*
X1011935Y820202D01*
X1014785Y821848D01*
X1017113Y824175D01*
X1018758Y827025D01*
X1019610Y830204D01*
Y833496D01*
X1018758Y836675D01*
X1017113Y839525D01*
X1014785Y841852D01*
X1011935Y843498D01*
X1010463Y843893D01*
Y845207D01*
X1011935Y845602D01*
X1014785Y847247D01*
X1017113Y849575D01*
X1018758Y852425D01*
X1019610Y855604D01*
Y858896D01*
X1018758Y862075D01*
X1017113Y864925D01*
X1014785Y867253D01*
X1011935Y868898D01*
X1010463Y869293D01*
Y870607D01*
X1011935Y871002D01*
X1014785Y872647D01*
X1017113Y874975D01*
X1018758Y877825D01*
X1019610Y881004D01*
Y884296D01*
X1018758Y887475D01*
X1017113Y890325D01*
X1014785Y892653D01*
X1011935Y894298D01*
X1008756Y895150D01*
X1005464D01*
X1002285Y894298D01*
X999435Y892653D01*
X998510Y891728D01*
X892750D01*
X882578Y901900D01*
X883064Y903073D01*
X1006869D01*
X1026091Y883851D01*
X1027971Y882409D01*
X1030161Y881502D01*
X1032510Y881192D01*
X1041530D01*
Y876770D01*
X1062530D01*
Y903770D01*
X1041530D01*
Y899348D01*
X1036270D01*
X1017048Y918569D01*
X1016768Y918784D01*
X1017199Y920054D01*
X1060754D01*
X1069952Y910856D01*
D02*
G37*
G36*
X1209394Y922980D02*
X1210067Y920469D01*
X1211895Y917301D01*
X1214481Y914715D01*
X1216127Y913765D01*
Y912495D01*
X1214481Y911545D01*
X1211895Y908959D01*
X1210067Y905791D01*
X1209120Y902259D01*
Y898601D01*
X1210067Y895069D01*
X1211895Y891901D01*
X1214481Y889315D01*
X1215027Y889000D01*
Y887730D01*
X1214481Y887415D01*
X1211895Y884829D01*
X1210067Y881661D01*
X1209120Y878129D01*
Y874471D01*
X1210067Y870939D01*
X1211895Y867771D01*
X1214481Y865185D01*
X1216127Y864235D01*
Y862965D01*
X1214481Y862015D01*
X1211895Y859429D01*
X1210479Y856976D01*
X1210367Y856905D01*
X1208951Y856779D01*
X1207560Y858170D01*
X1205280Y859486D01*
X1202737Y860168D01*
X1200104D01*
X1198436Y859721D01*
X1197614Y860546D01*
X1197503Y860786D01*
X1197996Y861978D01*
X1198306Y864327D01*
Y913688D01*
X1207977Y923360D01*
X1209394Y922980D01*
D02*
G37*
G36*
X794951Y956241D02*
X796831Y954799D01*
X799020Y953892D01*
X801370Y953582D01*
X809545D01*
X810031Y952409D01*
X793173Y935551D01*
X791730Y933671D01*
X790824Y931481D01*
X790514Y929132D01*
X790824Y926783D01*
X791730Y924593D01*
X793173Y922713D01*
X794197Y921927D01*
X794097Y920403D01*
X793039Y919792D01*
X790898Y917651D01*
X789384Y915029D01*
X788600Y912104D01*
Y909076D01*
X789384Y906151D01*
X790898Y903529D01*
X793039Y901388D01*
X795661Y899874D01*
X798586Y899090D01*
X801614D01*
X804539Y899874D01*
X807161Y901388D01*
X809302Y903529D01*
X810816Y906151D01*
X811600Y909076D01*
Y912104D01*
X810816Y915029D01*
X809302Y917651D01*
X808169Y918784D01*
X808695Y920054D01*
X826090D01*
X826522Y918784D01*
X826241Y918569D01*
X798762Y891090D01*
X798586D01*
X795661Y890307D01*
X793039Y888793D01*
X790898Y886652D01*
X789384Y884029D01*
X788600Y881104D01*
Y880928D01*
X755236Y847564D01*
X745790D01*
X745623Y848834D01*
X746048Y848948D01*
X748328Y850264D01*
X750190Y852126D01*
X751507Y854406D01*
X752188Y856949D01*
Y859583D01*
X751507Y862126D01*
X750190Y864406D01*
X748328Y866268D01*
X747748Y866603D01*
Y883120D01*
X749170D01*
Y910120D01*
X747748D01*
Y914400D01*
X747748Y914400D01*
X747438Y916749D01*
X746532Y918939D01*
X745089Y920819D01*
X730611Y935297D01*
X728731Y936740D01*
X726542Y937646D01*
X724192Y937956D01*
X643843D01*
X643357Y939129D01*
X661210Y956983D01*
X673350D01*
X675699Y957292D01*
X677889Y958199D01*
X679769Y959641D01*
X700380Y980252D01*
X770940D01*
X794951Y956241D01*
D02*
G37*
G36*
X882571Y876231D02*
X882571Y876231D01*
X884452Y874789D01*
X886641Y873882D01*
X888990Y873572D01*
X998510D01*
X999435Y872647D01*
X1002285Y871002D01*
X1003757Y870607D01*
Y869293D01*
X1002285Y868898D01*
X999435Y867253D01*
X997107Y864925D01*
X995462Y862075D01*
X994610Y858896D01*
Y855604D01*
X995462Y852425D01*
X997107Y849575D01*
X999435Y847247D01*
X1002285Y845602D01*
X1003757Y845207D01*
Y843893D01*
X1002285Y843498D01*
X999435Y841852D01*
X998510Y840928D01*
X885648D01*
X880654Y845922D01*
X880529Y846387D01*
X879212Y848668D01*
X877350Y850530D01*
X875070Y851846D01*
X872527Y852528D01*
X869894D01*
X867470Y851878D01*
X867202Y852010D01*
X867186Y852022D01*
X866458Y852797D01*
X867210Y855604D01*
Y858896D01*
X866358Y862075D01*
X864713Y864925D01*
X862385Y867253D01*
X859535Y868898D01*
X859770Y870150D01*
X867210D01*
Y890073D01*
X868730D01*
X882571Y876231D01*
D02*
G37*
G36*
X1209394Y973780D02*
X1210067Y971269D01*
X1211895Y968101D01*
X1214481Y965515D01*
X1216127Y964565D01*
Y963295D01*
X1214481Y962345D01*
X1211895Y959759D01*
X1210067Y956591D01*
X1209120Y953059D01*
Y950178D01*
X1182809Y923867D01*
X1181367Y921987D01*
X1180460Y919797D01*
X1180150Y917448D01*
Y868087D01*
X1134994Y822931D01*
X1133820Y823417D01*
Y833960D01*
X1111820D01*
Y811960D01*
X1122364D01*
X1122850Y810787D01*
X1025991Y713928D01*
X1015710D01*
X1014785Y714853D01*
X1011935Y716498D01*
X1010463Y716893D01*
Y718207D01*
X1011935Y718602D01*
X1014785Y720247D01*
X1017113Y722575D01*
X1018758Y725425D01*
X1019610Y728604D01*
Y729912D01*
X1071695Y781997D01*
X1073138Y783877D01*
X1074044Y786067D01*
X1074354Y788416D01*
Y802944D01*
X1175581Y904171D01*
X1175581Y904171D01*
X1177023Y906051D01*
X1177930Y908241D01*
X1178240Y910590D01*
Y944422D01*
X1207977Y974159D01*
X1209394Y973780D01*
D02*
G37*
G36*
X829122Y894116D02*
Y863550D01*
X749003Y783431D01*
X748406Y783679D01*
X747811Y784035D01*
X746978Y787145D01*
X745332Y789995D01*
X743005Y792322D01*
X740155Y793968D01*
X738683Y794363D01*
Y795677D01*
X740155Y796072D01*
X743005Y797718D01*
X745332Y800045D01*
X746978Y802895D01*
X747830Y806074D01*
Y809366D01*
X746978Y812545D01*
X745332Y815395D01*
X743005Y817722D01*
X740155Y819368D01*
X736976Y820220D01*
X733684D01*
X730505Y819368D01*
X727655Y817722D01*
X726730Y816798D01*
X693633D01*
X693216Y817038D01*
X690673Y817720D01*
X688039D01*
X685496Y817038D01*
X683216Y815722D01*
X681354Y813860D01*
X680038Y811580D01*
X679356Y809036D01*
Y806404D01*
X680038Y803860D01*
X681354Y801580D01*
X683216Y799718D01*
X685496Y798401D01*
X688039Y797720D01*
X690673D01*
X693216Y798401D01*
X693633Y798642D01*
X726730D01*
X727655Y797718D01*
X730505Y796072D01*
X731977Y795677D01*
Y794363D01*
X730505Y793968D01*
X727655Y792322D01*
X726730Y791398D01*
X664931D01*
X664514Y791638D01*
X661971Y792320D01*
X659337D01*
X659238Y792293D01*
X658581Y793432D01*
X694557Y829408D01*
X758996D01*
X761345Y829718D01*
X763534Y830625D01*
X765415Y832067D01*
X801438Y868090D01*
X801614D01*
X804539Y868874D01*
X807161Y870388D01*
X809302Y872529D01*
X810816Y875152D01*
X811600Y878076D01*
Y878253D01*
X827949Y894602D01*
X829122Y894116D01*
D02*
G37*
G36*
X729859Y859760D02*
X729902Y859435D01*
X730809Y857245D01*
X732251Y855365D01*
X732745Y854872D01*
X732869Y854406D01*
X734186Y852126D01*
X736048Y850264D01*
X738328Y848948D01*
X738753Y848834D01*
X738586Y847564D01*
X690797D01*
X688448Y847254D01*
X686258Y846348D01*
X684378Y844905D01*
X633153Y793680D01*
X631711Y791800D01*
X630804Y789610D01*
X630494Y787261D01*
Y686816D01*
X630804Y684467D01*
X631711Y682277D01*
X633153Y680397D01*
X742119Y571431D01*
X743999Y569989D01*
X746189Y569082D01*
X748538Y568772D01*
X846110D01*
X847035Y567848D01*
X849885Y566202D01*
X851357Y565807D01*
Y564493D01*
X849885Y564098D01*
X847035Y562453D01*
X846110Y561528D01*
X645364D01*
X533723Y673169D01*
X531843Y674612D01*
X529653Y675518D01*
X527304Y675828D01*
X486360D01*
X466024Y696164D01*
Y769986D01*
X467294Y770719D01*
X469619Y769377D01*
X473151Y768430D01*
X476809D01*
X480341Y769377D01*
X483509Y771205D01*
X486095Y773791D01*
X487923Y776959D01*
X488870Y780491D01*
Y783372D01*
X564338Y858840D01*
X723900D01*
X726249Y859150D01*
X728439Y860057D01*
X728686Y860246D01*
X729859Y859760D01*
D02*
G37*
G36*
X650681Y783736D02*
X650654Y783636D01*
Y781003D01*
X651336Y778460D01*
X652652Y776180D01*
X654514Y774318D01*
X656794Y773001D01*
X659337Y772320D01*
X661971D01*
X664514Y773001D01*
X664931Y773242D01*
X726730D01*
X727655Y772318D01*
X730505Y770672D01*
X731977Y770277D01*
Y768963D01*
X730505Y768568D01*
X727655Y766923D01*
X725328Y764595D01*
X723682Y761745D01*
X722830Y758566D01*
Y755274D01*
X723682Y752095D01*
X725328Y749245D01*
X727655Y746917D01*
X730505Y745272D01*
X731977Y744877D01*
Y743563D01*
X730505Y743168D01*
X727655Y741523D01*
X725328Y739195D01*
X723682Y736345D01*
X722849Y733235D01*
X722254Y732879D01*
X721657Y732631D01*
X711319Y742969D01*
X709439Y744412D01*
X707249Y745319D01*
X704900Y745628D01*
X674170D01*
Y748050D01*
X649170D01*
X648650Y749105D01*
Y783501D01*
X649542Y784393D01*
X650681Y783736D01*
D02*
G37*
G36*
X843807Y851134D02*
X844707Y849575D01*
X847035Y847247D01*
X849885Y845602D01*
X851357Y845207D01*
Y843893D01*
X849885Y843498D01*
X847035Y841852D01*
X844707Y839525D01*
X843062Y836675D01*
X842210Y833496D01*
Y830204D01*
X843062Y827025D01*
X844707Y824175D01*
X847035Y821848D01*
X849885Y820202D01*
X851357Y819807D01*
Y818493D01*
X849885Y818098D01*
X847035Y816452D01*
X844707Y814125D01*
X843062Y811275D01*
X842210Y808096D01*
Y804804D01*
X843062Y801625D01*
X844707Y798775D01*
X847035Y796448D01*
X849885Y794802D01*
X851357Y794407D01*
Y793093D01*
X849885Y792698D01*
X847035Y791052D01*
X844707Y788725D01*
X843062Y785875D01*
X842210Y782696D01*
Y779404D01*
X843062Y776225D01*
X844707Y773375D01*
X847035Y771048D01*
X849885Y769402D01*
X851357Y769007D01*
Y767693D01*
X849885Y767298D01*
X847035Y765652D01*
X844707Y763325D01*
X843062Y760475D01*
X842210Y757296D01*
Y754004D01*
X843062Y750825D01*
X844707Y747975D01*
X847035Y745648D01*
X849885Y744002D01*
X851357Y743607D01*
Y742293D01*
X849885Y741898D01*
X847035Y740253D01*
X844707Y737925D01*
X843062Y735075D01*
X842210Y731896D01*
Y728604D01*
X843062Y725425D01*
X844707Y722575D01*
X847035Y720247D01*
X849885Y718602D01*
X851357Y718207D01*
Y716893D01*
X849885Y716498D01*
X847035Y714853D01*
X844707Y712525D01*
X843200Y709914D01*
X842147Y710041D01*
X841930Y710127D01*
Y712694D01*
X841156Y715581D01*
X839662Y718169D01*
X837549Y720282D01*
X834961Y721777D01*
X832074Y722550D01*
X832068D01*
X789860Y764758D01*
Y764764D01*
X789087Y767651D01*
X787592Y770239D01*
X785479Y772352D01*
X782891Y773847D01*
X780004Y774620D01*
X777016D01*
X774129Y773847D01*
X771541Y772352D01*
X769428Y770239D01*
X767934Y767651D01*
X767160Y764764D01*
Y761776D01*
X767934Y758889D01*
X769428Y756301D01*
X771541Y754188D01*
X774129Y752693D01*
X777016Y751920D01*
X777022D01*
X819230Y709712D01*
Y709706D01*
X820004Y706819D01*
X821498Y704231D01*
X823611Y702118D01*
X826199Y700623D01*
X829086Y699850D01*
X832074D01*
X834961Y700623D01*
X837549Y702118D01*
X839662Y704231D01*
X840940Y706444D01*
X842210Y706104D01*
Y703204D01*
X843062Y700025D01*
X844707Y697175D01*
X847035Y694847D01*
X849885Y693202D01*
X851357Y692807D01*
Y691493D01*
X849885Y691098D01*
X847035Y689453D01*
X844707Y687125D01*
X843062Y684275D01*
X842210Y681096D01*
Y677804D01*
X843062Y674625D01*
X844707Y671775D01*
X847035Y669447D01*
X849885Y667802D01*
X851357Y667407D01*
Y666093D01*
X849885Y665698D01*
X847035Y664053D01*
X844707Y661725D01*
X843062Y658875D01*
X842229Y655765D01*
X841634Y655409D01*
X841037Y655161D01*
X783659Y712539D01*
X781779Y713981D01*
X779589Y714888D01*
X777240Y715198D01*
X743930D01*
X743005Y716123D01*
X740155Y717768D01*
X738683Y718163D01*
Y719477D01*
X740155Y719872D01*
X743005Y721517D01*
X745332Y723845D01*
X746978Y726695D01*
X747830Y729874D01*
Y733166D01*
X746978Y736345D01*
X745332Y739195D01*
X743005Y741523D01*
X740155Y743168D01*
X738683Y743563D01*
Y744877D01*
X740155Y745272D01*
X743005Y746917D01*
X745332Y749245D01*
X746978Y752095D01*
X747830Y755274D01*
Y756582D01*
X842548Y851300D01*
X843807Y851134D01*
D02*
G37*
G36*
X1253865Y731007D02*
Y435261D01*
X1252595Y434412D01*
X1248946Y435923D01*
X1244160Y437072D01*
X1239253Y437459D01*
X1234346Y437072D01*
X1229560Y435923D01*
X1225013Y434040D01*
X1220816Y431468D01*
X1217073Y428272D01*
X1213877Y424529D01*
X1211305Y420332D01*
X1209421Y415785D01*
X1208272Y410999D01*
X1207886Y406092D01*
X1208272Y401185D01*
X1209421Y396399D01*
X1211305Y391852D01*
X1213877Y387655D01*
X1217073Y383912D01*
X1220816Y380716D01*
X1225013Y378144D01*
X1229560Y376260D01*
X1234346Y375111D01*
X1239253Y374725D01*
X1244160Y375111D01*
X1248946Y376260D01*
X1252595Y377772D01*
X1253865Y376923D01*
Y320228D01*
X976818D01*
Y560120D01*
X993437Y576739D01*
X994034Y576491D01*
X994629Y576135D01*
X995462Y573025D01*
X997107Y570175D01*
X999435Y567848D01*
X1002285Y566202D01*
X1003757Y565807D01*
Y564493D01*
X1002285Y564098D01*
X999435Y562453D01*
X997107Y560125D01*
X995462Y557275D01*
X994610Y554096D01*
Y550804D01*
X995462Y547625D01*
X997107Y544775D01*
X999435Y542448D01*
X1002285Y540802D01*
X1003757Y540407D01*
Y539093D01*
X1002285Y538698D01*
X999435Y537052D01*
X997107Y534725D01*
X995462Y531875D01*
X994610Y528696D01*
Y525404D01*
X995462Y522225D01*
X997107Y519375D01*
X999435Y517048D01*
X1002285Y515402D01*
X1003757Y515007D01*
Y513693D01*
X1002285Y513298D01*
X999435Y511652D01*
X997107Y509325D01*
X995462Y506475D01*
X994610Y503296D01*
Y500004D01*
X995462Y496825D01*
X997107Y493975D01*
X999435Y491647D01*
X1002285Y490002D01*
X1003757Y489607D01*
Y488293D01*
X1002285Y487898D01*
X999435Y486253D01*
X997107Y483925D01*
X995462Y481075D01*
X994610Y477896D01*
Y474604D01*
X995462Y471425D01*
X997107Y468575D01*
X999435Y466247D01*
X1002285Y464602D01*
X1003757Y464207D01*
Y462893D01*
X1002285Y462498D01*
X999435Y460853D01*
X997107Y458525D01*
X995462Y455675D01*
X994610Y452496D01*
Y449204D01*
X995462Y446025D01*
X997107Y443175D01*
X999435Y440848D01*
X1002285Y439202D01*
X1003757Y438807D01*
Y437493D01*
X1002285Y437098D01*
X999435Y435452D01*
X997107Y433125D01*
X995462Y430275D01*
X994610Y427096D01*
Y423804D01*
X995462Y420625D01*
X997107Y417775D01*
X999435Y415448D01*
X1002285Y413802D01*
X1003757Y413407D01*
Y412093D01*
X1002285Y411698D01*
X999435Y410052D01*
X997107Y407725D01*
X995462Y404875D01*
X994610Y401696D01*
Y398404D01*
X995462Y395225D01*
X997107Y392375D01*
X999435Y390047D01*
X1002285Y388402D01*
X1005464Y387550D01*
X1008756D01*
X1011935Y388402D01*
X1014785Y390047D01*
X1017113Y392375D01*
X1018758Y395225D01*
X1019610Y398404D01*
Y401696D01*
X1018758Y404875D01*
X1017113Y407725D01*
X1014785Y410052D01*
X1011935Y411698D01*
X1010463Y412093D01*
Y413407D01*
X1011935Y413802D01*
X1014785Y415448D01*
X1017113Y417775D01*
X1018758Y420625D01*
X1019591Y423735D01*
X1020186Y424091D01*
X1020783Y424339D01*
X1097092Y348030D01*
Y344794D01*
X1097088Y344789D01*
X1095593Y342201D01*
X1094820Y339314D01*
Y336326D01*
X1095593Y333439D01*
X1097088Y330851D01*
X1099201Y328738D01*
X1101789Y327243D01*
X1104676Y326470D01*
X1107664D01*
X1110551Y327243D01*
X1113139Y328738D01*
X1115252Y330851D01*
X1116747Y333439D01*
X1117520Y336326D01*
Y339314D01*
X1116747Y342201D01*
X1115252Y344789D01*
X1115248Y344794D01*
Y351790D01*
X1114938Y354140D01*
X1114032Y356329D01*
X1112589Y358209D01*
X1019610Y451188D01*
Y452496D01*
X1018758Y455675D01*
X1017113Y458525D01*
X1014785Y460853D01*
X1011935Y462498D01*
X1010463Y462893D01*
Y464207D01*
X1011935Y464602D01*
X1014785Y466247D01*
X1017113Y468575D01*
X1018758Y471425D01*
X1019610Y474604D01*
Y477896D01*
X1018758Y481075D01*
X1017113Y483925D01*
X1014785Y486253D01*
X1011935Y487898D01*
X1010463Y488293D01*
Y489607D01*
X1011935Y490002D01*
X1014785Y491647D01*
X1017113Y493975D01*
X1018758Y496825D01*
X1019610Y500004D01*
Y503296D01*
X1018758Y506475D01*
X1017113Y509325D01*
X1014785Y511652D01*
X1011935Y513298D01*
X1010463Y513693D01*
Y515007D01*
X1011935Y515402D01*
X1014785Y517048D01*
X1017113Y519375D01*
X1018758Y522225D01*
X1019610Y525404D01*
Y528696D01*
X1018758Y531875D01*
X1017113Y534725D01*
X1014785Y537052D01*
X1011935Y538698D01*
X1010463Y539093D01*
Y540407D01*
X1011935Y540802D01*
X1014785Y542448D01*
X1017113Y544775D01*
X1018758Y547625D01*
X1019610Y550804D01*
Y554096D01*
X1018758Y557275D01*
X1017113Y560125D01*
X1014785Y562453D01*
X1011935Y564098D01*
X1010463Y564493D01*
Y565807D01*
X1011935Y566202D01*
X1014785Y567848D01*
X1015710Y568772D01*
X1191768D01*
X1194117Y569082D01*
X1196307Y569989D01*
X1198187Y571431D01*
X1207384Y580628D01*
X1207384Y580628D01*
X1208826Y582508D01*
X1209733Y584697D01*
X1210042Y587047D01*
Y690640D01*
X1211312Y690981D01*
X1211895Y689971D01*
X1214481Y687385D01*
X1217649Y685557D01*
X1221181Y684610D01*
X1224839D01*
X1228371Y685557D01*
X1231539Y687385D01*
X1234125Y689971D01*
X1235953Y693139D01*
X1236900Y696671D01*
Y700329D01*
X1235953Y703861D01*
X1234125Y707029D01*
X1231539Y709615D01*
X1229893Y710565D01*
Y711835D01*
X1231539Y712785D01*
X1234125Y715371D01*
X1235953Y718539D01*
X1236900Y722071D01*
Y725729D01*
X1235953Y729261D01*
X1234125Y732429D01*
X1231539Y735015D01*
X1229893Y735965D01*
Y737235D01*
X1231539Y738185D01*
X1234125Y740771D01*
X1235953Y743939D01*
X1236626Y746450D01*
X1238043Y746830D01*
X1253865Y731007D01*
D02*
G37*
G36*
X1065023Y699378D02*
X1065236Y698584D01*
X1066552Y696304D01*
X1068414Y694442D01*
X1070694Y693126D01*
X1073238Y692444D01*
X1075320D01*
X1075846Y691174D01*
X1057055Y672383D01*
X1056590Y672259D01*
X1055895Y671857D01*
X1054796Y672492D01*
Y690706D01*
X1063796Y699706D01*
X1065023Y699378D01*
D02*
G37*
G36*
X999435Y669447D02*
X1002285Y667802D01*
X1003757Y667407D01*
Y666093D01*
X1002285Y665698D01*
X999435Y664053D01*
X998510Y663128D01*
X905510D01*
X903565Y662872D01*
X902948Y664051D01*
X909270Y670372D01*
X998510D01*
X999435Y669447D01*
D02*
G37*
G36*
X875469Y825431D02*
X877349Y823988D01*
X879538Y823082D01*
X881888Y822772D01*
X998510D01*
X999435Y821848D01*
X1002285Y820202D01*
X1003757Y819807D01*
Y818493D01*
X1002285Y818098D01*
X999435Y816452D01*
X997107Y814125D01*
X995462Y811275D01*
X994610Y808096D01*
Y804804D01*
X995462Y801625D01*
X997107Y798775D01*
X999435Y796448D01*
X1002285Y794802D01*
X1003757Y794407D01*
Y793093D01*
X1002285Y792698D01*
X999435Y791052D01*
X997107Y788725D01*
X995462Y785875D01*
X994610Y782696D01*
Y779404D01*
X995462Y776225D01*
X997107Y773375D01*
X999435Y771048D01*
X1002285Y769402D01*
X1003757Y769007D01*
Y767693D01*
X1002285Y767298D01*
X999435Y765652D01*
X997107Y763325D01*
X995462Y760475D01*
X994610Y757296D01*
Y754004D01*
X995462Y750825D01*
X997107Y747975D01*
X999435Y745648D01*
X1002285Y744002D01*
X1003757Y743607D01*
Y742293D01*
X1002285Y741898D01*
X999435Y740253D01*
X997107Y737925D01*
X995462Y735075D01*
X994610Y731896D01*
Y728604D01*
X995462Y725425D01*
X997107Y722575D01*
X999435Y720247D01*
X1002285Y718602D01*
X1003757Y718207D01*
Y716893D01*
X1002285Y716498D01*
X999435Y714853D01*
X997107Y712525D01*
X995462Y709675D01*
X994610Y706496D01*
Y703204D01*
X995462Y700025D01*
X997107Y697175D01*
X999435Y694847D01*
X1002285Y693202D01*
X1003757Y692807D01*
Y691493D01*
X1002285Y691098D01*
X999435Y689453D01*
X998510Y688528D01*
X905510D01*
X903160Y688218D01*
X900971Y687311D01*
X899091Y685869D01*
X868383Y655161D01*
X867786Y655409D01*
X867191Y655765D01*
X866358Y658875D01*
X864713Y661725D01*
X862385Y664053D01*
X859535Y665698D01*
X858063Y666093D01*
Y667407D01*
X859535Y667802D01*
X862385Y669447D01*
X864713Y671775D01*
X866358Y674625D01*
X867210Y677804D01*
Y681096D01*
X866358Y684275D01*
X864713Y687125D01*
X862385Y689453D01*
X859535Y691098D01*
X858063Y691493D01*
Y692807D01*
X859535Y693202D01*
X862385Y694847D01*
X864713Y697175D01*
X866358Y700025D01*
X867210Y703204D01*
Y706496D01*
X866358Y709675D01*
X864713Y712525D01*
X862385Y714853D01*
X859535Y716498D01*
X858063Y716893D01*
Y718207D01*
X859535Y718602D01*
X862385Y720247D01*
X864713Y722575D01*
X866358Y725425D01*
X867210Y728604D01*
Y731896D01*
X866358Y735075D01*
X864713Y737925D01*
X862385Y740253D01*
X859535Y741898D01*
X858063Y742293D01*
Y743607D01*
X859535Y744002D01*
X862385Y745648D01*
X864713Y747975D01*
X866358Y750825D01*
X867210Y754004D01*
Y757296D01*
X866358Y760475D01*
X864713Y763325D01*
X862385Y765652D01*
X859535Y767298D01*
X858063Y767693D01*
Y769007D01*
X859535Y769402D01*
X862385Y771048D01*
X864713Y773375D01*
X866358Y776225D01*
X867210Y779404D01*
Y782696D01*
X866358Y785875D01*
X864713Y788725D01*
X862385Y791052D01*
X859535Y792698D01*
X858063Y793093D01*
Y794407D01*
X859535Y794802D01*
X862385Y796448D01*
X864713Y798775D01*
X866358Y801625D01*
X867210Y804804D01*
Y808096D01*
X866358Y811275D01*
X864713Y814125D01*
X862385Y816452D01*
X859535Y818098D01*
X858063Y818493D01*
Y819807D01*
X859535Y820202D01*
X862385Y821848D01*
X864713Y824175D01*
X866358Y827025D01*
X867210Y830204D01*
Y831894D01*
X868480Y832420D01*
X875469Y825431D01*
D02*
G37*
G36*
X1037374Y697840D02*
X1036950Y696815D01*
X1036640Y694466D01*
Y671018D01*
X1020783Y655161D01*
X1020186Y655409D01*
X1019591Y655765D01*
X1018758Y658875D01*
X1017113Y661725D01*
X1014785Y664053D01*
X1011935Y665698D01*
X1010463Y666093D01*
Y667407D01*
X1011935Y667802D01*
X1014785Y669447D01*
X1017113Y671775D01*
X1018758Y674625D01*
X1019610Y677804D01*
Y681096D01*
X1018758Y684275D01*
X1017113Y687125D01*
X1014785Y689453D01*
X1011935Y691098D01*
X1010463Y691493D01*
Y692807D01*
X1011935Y693202D01*
X1014785Y694847D01*
X1015710Y695772D01*
X1029751D01*
X1032100Y696082D01*
X1034289Y696989D01*
X1036169Y698431D01*
X1036297Y698559D01*
X1037374Y697840D01*
D02*
G37*
G36*
X1192143Y779999D02*
X1191887Y778055D01*
Y590807D01*
X1188008Y586928D01*
X1015710D01*
X1014785Y587853D01*
X1011935Y589498D01*
X1010463Y589893D01*
Y591207D01*
X1011935Y591602D01*
X1014785Y593247D01*
X1017113Y595575D01*
X1018758Y598425D01*
X1019610Y601604D01*
Y604896D01*
X1018758Y608075D01*
X1017113Y610925D01*
X1014785Y613252D01*
X1011935Y614898D01*
X1010463Y615293D01*
Y616607D01*
X1011935Y617002D01*
X1014785Y618647D01*
X1017113Y620975D01*
X1018758Y623825D01*
X1019610Y627004D01*
Y628312D01*
X1049998Y658700D01*
X1051513Y658419D01*
X1052448Y656800D01*
X1054310Y654938D01*
X1056590Y653622D01*
X1059134Y652940D01*
X1061767D01*
X1064310Y653622D01*
X1066590Y654938D01*
X1068452Y656800D01*
X1069769Y659080D01*
X1069893Y659545D01*
X1190964Y780616D01*
X1192143Y779999D01*
D02*
G37*
G36*
X722830Y680382D02*
Y668220D01*
X747830D01*
Y693220D01*
X740390D01*
X740155Y694472D01*
X743005Y696117D01*
X743930Y697042D01*
X773480D01*
X842210Y628312D01*
Y627004D01*
X843062Y623825D01*
X844707Y620975D01*
X847035Y618647D01*
X849885Y617002D01*
X851357Y616607D01*
Y615293D01*
X849885Y614898D01*
X847035Y613252D01*
X844707Y610925D01*
X843062Y608075D01*
X842210Y604896D01*
Y601604D01*
X843062Y598425D01*
X844707Y595575D01*
X847035Y593247D01*
X849885Y591602D01*
X851357Y591207D01*
Y589893D01*
X849885Y589498D01*
X847035Y587853D01*
X846110Y586928D01*
X752298D01*
X648650Y690576D01*
Y704996D01*
X649170Y706050D01*
X674170D01*
Y708472D01*
X694740D01*
X722830Y680382D01*
D02*
G37*
G36*
X1271559Y863174D02*
X1278090Y429938D01*
X1276826Y429544D01*
X1274450Y433100D01*
X1272020Y435870D01*
Y734767D01*
X1272020Y734768D01*
X1271711Y737117D01*
X1270804Y739306D01*
X1269361Y741186D01*
X1269361Y741186D01*
X1236900Y773648D01*
Y776529D01*
X1235953Y780061D01*
X1234125Y783229D01*
X1231539Y785815D01*
X1229893Y786765D01*
Y788035D01*
X1231539Y788985D01*
X1234125Y791571D01*
X1235953Y794739D01*
X1236900Y798271D01*
Y801929D01*
X1235953Y805461D01*
X1234125Y808629D01*
X1231539Y811215D01*
X1229893Y812165D01*
Y813435D01*
X1231539Y814385D01*
X1234125Y816971D01*
X1235953Y820139D01*
X1236900Y823671D01*
Y827329D01*
X1235953Y830861D01*
X1234125Y834029D01*
X1231539Y836615D01*
X1229893Y837565D01*
Y838835D01*
X1231539Y839785D01*
X1234125Y842371D01*
X1235953Y845539D01*
X1236900Y849071D01*
Y852729D01*
X1235953Y856261D01*
X1234125Y859429D01*
X1231539Y862015D01*
X1229893Y862965D01*
Y864235D01*
X1231539Y865185D01*
X1234125Y867771D01*
X1235953Y870939D01*
X1236900Y874471D01*
Y878129D01*
X1235953Y881661D01*
X1234125Y884829D01*
X1231539Y887415D01*
X1230993Y887730D01*
Y889000D01*
X1231539Y889315D01*
X1233576Y891352D01*
X1243380D01*
X1271559Y863174D01*
D02*
G37*
G36*
X1242900Y424426D02*
X1246406Y423362D01*
X1249638Y421635D01*
X1252471Y419310D01*
X1254796Y416477D01*
X1256523Y413246D01*
X1257587Y409739D01*
X1257946Y406092D01*
X1257587Y402445D01*
X1256523Y398938D01*
X1254796Y395707D01*
X1252471Y392874D01*
X1249638Y390549D01*
X1246406Y388822D01*
X1242900Y387758D01*
X1239253Y387399D01*
X1235606Y387758D01*
X1232099Y388822D01*
X1228867Y390549D01*
X1226035Y392874D01*
X1223710Y395707D01*
X1221983Y398938D01*
X1220919Y402445D01*
X1220560Y406092D01*
X1220919Y409739D01*
X1221983Y413246D01*
X1223710Y416477D01*
X1226035Y419310D01*
X1228867Y421635D01*
X1232099Y423362D01*
X1235606Y424426D01*
X1239253Y424785D01*
X1242900Y424426D01*
D02*
G37*
G36*
X999435Y644047D02*
X1002285Y642402D01*
X1003757Y642007D01*
Y640693D01*
X1002285Y640298D01*
X999435Y638652D01*
X997107Y636325D01*
X995462Y633475D01*
X994610Y630296D01*
Y627004D01*
X995462Y623825D01*
X997107Y620975D01*
X999435Y618647D01*
X1002285Y617002D01*
X1003757Y616607D01*
Y615293D01*
X1002285Y614898D01*
X999435Y613252D01*
X997107Y610925D01*
X995462Y608075D01*
X994610Y604896D01*
Y603588D01*
X961321Y570299D01*
X959878Y568419D01*
X958972Y566229D01*
X958662Y563880D01*
Y315836D01*
X958972Y313487D01*
X959878Y311297D01*
X961321Y309417D01*
X964578Y306161D01*
X964092Y304988D01*
X962610D01*
X867210Y400388D01*
Y401696D01*
X866358Y404875D01*
X864713Y407725D01*
X862385Y410052D01*
X859535Y411698D01*
X858063Y412093D01*
Y413407D01*
X859535Y413802D01*
X862385Y415448D01*
X864713Y417775D01*
X866358Y420625D01*
X867210Y423804D01*
Y427096D01*
X866358Y430275D01*
X864713Y433125D01*
X862385Y435452D01*
X859535Y437098D01*
X858063Y437493D01*
Y438807D01*
X859535Y439202D01*
X862385Y440848D01*
X864713Y443175D01*
X866358Y446025D01*
X867210Y449204D01*
Y452496D01*
X866358Y455675D01*
X864713Y458525D01*
X862385Y460853D01*
X859535Y462498D01*
X858063Y462893D01*
Y464207D01*
X859535Y464602D01*
X862385Y466247D01*
X864713Y468575D01*
X866358Y471425D01*
X867210Y474604D01*
Y477896D01*
X866358Y481075D01*
X864713Y483925D01*
X862385Y486253D01*
X859535Y487898D01*
X858063Y488293D01*
Y489607D01*
X859535Y490002D01*
X862385Y491647D01*
X864713Y493975D01*
X866358Y496825D01*
X867210Y500004D01*
Y503296D01*
X866358Y506475D01*
X864713Y509325D01*
X862385Y511652D01*
X859535Y513298D01*
X858063Y513693D01*
Y515007D01*
X859535Y515402D01*
X862385Y517048D01*
X864713Y519375D01*
X866358Y522225D01*
X867210Y525404D01*
Y528696D01*
X866358Y531875D01*
X864713Y534725D01*
X862385Y537052D01*
X859535Y538698D01*
X858063Y539093D01*
Y540407D01*
X859535Y540802D01*
X862385Y542448D01*
X864713Y544775D01*
X866358Y547625D01*
X867210Y550804D01*
Y554096D01*
X866358Y557275D01*
X864713Y560125D01*
X862385Y562453D01*
X859535Y564098D01*
X858063Y564493D01*
Y565807D01*
X859535Y566202D01*
X862385Y567848D01*
X864713Y570175D01*
X866358Y573025D01*
X867210Y576204D01*
Y579496D01*
X866358Y582675D01*
X864713Y585525D01*
X862385Y587853D01*
X859535Y589498D01*
X858063Y589893D01*
Y591207D01*
X859535Y591602D01*
X862385Y593247D01*
X864713Y595575D01*
X866358Y598425D01*
X867210Y601604D01*
Y602912D01*
X909270Y644972D01*
X998510D01*
X999435Y644047D01*
D02*
G37*
G36*
X849885Y388402D02*
X853064Y387550D01*
X854372D01*
X948436Y293486D01*
X947916Y292327D01*
X930569Y293341D01*
X847278Y376632D01*
Y388637D01*
X848378Y389272D01*
X849885Y388402D01*
D02*
G37*
%LPC*%
G36*
X767304Y975280D02*
X764316D01*
X761429Y974507D01*
X758841Y973012D01*
X756728Y970899D01*
X755234Y968311D01*
X754460Y965424D01*
Y962436D01*
X755234Y959549D01*
X756728Y956961D01*
X758841Y954848D01*
X761429Y953354D01*
X763082Y952911D01*
Y890894D01*
X763078Y890889D01*
X761583Y888301D01*
X760810Y885414D01*
Y882426D01*
X761583Y879539D01*
X763078Y876951D01*
X765191Y874838D01*
X767779Y873344D01*
X770666Y872570D01*
X773654D01*
X776541Y873344D01*
X779129Y874838D01*
X781242Y876951D01*
X782737Y879539D01*
X783510Y882426D01*
Y885414D01*
X782737Y888301D01*
X781242Y890889D01*
X781238Y890894D01*
Y960120D01*
X780928Y962469D01*
X780022Y964659D01*
X778579Y966539D01*
X775812Y969305D01*
X774892Y970899D01*
X772779Y973012D01*
X770191Y974507D01*
X767304Y975280D01*
D02*
G37*
G36*
X524080Y706960D02*
X502080D01*
Y684960D01*
X524080D01*
Y706960D01*
D02*
G37*
%LPD*%
G36*
X1547700Y425696D02*
X1551206Y424632D01*
X1554438Y422905D01*
X1557271Y420580D01*
X1559595Y417747D01*
X1561323Y414515D01*
X1562387Y411009D01*
X1562746Y407362D01*
X1562387Y403715D01*
X1561323Y400208D01*
X1559595Y396977D01*
X1557271Y394144D01*
X1554438Y391819D01*
X1551206Y390092D01*
X1547700Y389028D01*
X1544053Y388669D01*
X1540406Y389028D01*
X1536899Y390092D01*
X1533667Y391819D01*
X1530835Y394144D01*
X1528510Y396977D01*
X1526783Y400208D01*
X1525719Y403715D01*
X1525360Y407362D01*
X1525719Y411009D01*
X1526783Y414515D01*
X1528510Y417747D01*
X1530835Y420580D01*
X1533667Y422905D01*
X1536899Y424632D01*
X1540406Y425696D01*
X1544053Y426055D01*
X1547700Y425696D01*
D02*
G37*
G36*
X1552806Y324322D02*
X1554899Y323455D01*
X1556696Y322076D01*
X1558075Y320279D01*
X1558942Y318186D01*
X1559237Y315940D01*
X1558942Y313694D01*
X1558075Y311601D01*
X1556696Y309804D01*
X1554899Y308425D01*
X1552806Y307558D01*
X1550560Y307263D01*
X1548314Y307558D01*
X1546221Y308425D01*
X1544424Y309804D01*
X1543045Y311601D01*
X1542178Y313694D01*
X1541883Y315940D01*
X1542178Y318186D01*
X1543045Y320279D01*
X1544424Y322076D01*
X1546221Y323455D01*
X1548314Y324322D01*
X1550560Y324617D01*
X1552806Y324322D01*
D02*
G37*
G36*
X452806D02*
X454899Y323455D01*
X456696Y322076D01*
X458075Y320279D01*
X458942Y318186D01*
X459237Y315940D01*
X458942Y313694D01*
X458075Y311601D01*
X456696Y309804D01*
X454899Y308425D01*
X452806Y307558D01*
X450560Y307263D01*
X448314Y307558D01*
X446221Y308425D01*
X444424Y309804D01*
X443045Y311601D01*
X442178Y313694D01*
X441883Y315940D01*
X442178Y318186D01*
X443045Y320279D01*
X444424Y322076D01*
X446221Y323455D01*
X448314Y324322D01*
X450560Y324617D01*
X452806Y324322D01*
D02*
G37*
D14*
X1263390Y1154430D02*
G03*
X1263390Y1154430I-25000J0D01*
G01*
X1570323Y1154122D02*
G03*
X1570323Y1154122I-25000J0D01*
G01*
X1264253Y406092D02*
G03*
X1264253Y406092I-25000J0D01*
G01*
X1569053Y407362D02*
G03*
X1569053Y407362I-25000J0D01*
G01*
D17*
X711670Y896620D02*
D03*
X738670D02*
D03*
X1052030Y890270D02*
D03*
X1079030D02*
D03*
D19*
X661670Y736550D02*
D03*
Y717550D02*
D03*
D47*
X1263167Y380168D02*
G03*
X1263167Y432017I-23914J25924D01*
G01*
X1300366Y401712D02*
G03*
X1300516Y406996I-61113J4380D01*
G01*
X1287393Y402552D02*
G03*
X1287517Y406833I-48140J3540D01*
G01*
X872490Y1154430D02*
Y1219200D01*
X1106170Y337820D02*
Y351790D01*
X1007110Y450850D02*
X1106170Y351790D01*
X972426Y311150D02*
X1258256D01*
X1262943Y315836D01*
X967740D02*
X972426Y311150D01*
X967740Y315836D02*
Y563880D01*
X1262943Y315836D02*
Y379943D01*
X926592Y284480D02*
X953465Y282910D01*
X1280815D02*
X1292875Y294970D01*
X924249Y286823D02*
X926592Y284480D01*
X854710Y400050D02*
X958850Y295910D01*
X953465Y282910D02*
X1280815D01*
X1292875Y294970D02*
X1293716Y306478D01*
X1275431Y295910D02*
X1279877Y300357D01*
X958850Y295910D02*
X1275431D01*
X838200Y372872D02*
X924249Y286823D01*
X1279877Y300357D02*
X1280096Y303323D01*
X1287393Y402552D01*
X1293716Y306478D02*
X1300366Y401712D01*
X967740Y563880D02*
X1007110Y603250D01*
X1293580Y876850D02*
X1300516Y406996D01*
X1223010Y774700D02*
X1262943Y734768D01*
Y379943D02*
X1263167Y380168D01*
X1280580Y866990D02*
X1287517Y406833D01*
X1262943Y432241D02*
Y734768D01*
X1244600Y925830D02*
X1293580Y876850D01*
X1247140Y900430D02*
X1280580Y866990D01*
X1262943Y432241D02*
X1263167Y432017D01*
X838200Y408940D02*
X854710Y425450D01*
X1007110Y730250D02*
X1065276Y788416D01*
Y806704D01*
X1007110Y628650D02*
X1045718Y667258D01*
X1007110Y704850D02*
X1029751D01*
X1045718Y667258D02*
Y694466D01*
X1010629Y912151D02*
X1032510Y890270D01*
X1052030D01*
X905510Y654050D02*
X1007110D01*
X854710Y603250D02*
X905510Y654050D01*
Y679450D02*
X1007110D01*
X854710Y628650D02*
X905510Y679450D01*
X838200Y899150D02*
X872490D01*
X888990Y882650D01*
X871210Y842528D02*
X881888Y831850D01*
X832660Y912151D02*
X1010629D01*
X888990Y882650D02*
X1007110D01*
X881888Y831850D02*
X1007110D01*
X1079030Y890270D02*
Y914616D01*
X735330Y706120D02*
X777240D01*
X854710Y628650D01*
X723900Y867918D02*
X738670Y882688D01*
Y861784D02*
X742188Y858266D01*
X738670Y861784D02*
Y882688D01*
Y896620D02*
Y914400D01*
X711670Y893572D02*
Y896620D01*
X738670Y882688D02*
Y896620D01*
X800100Y879590D02*
X832660Y912151D01*
X758996Y838486D02*
X800100Y879590D01*
X735330Y756920D02*
X838200Y859790D01*
Y899150D01*
X778510Y763270D02*
X830580Y711200D01*
X527304Y666750D02*
X641604Y552450D01*
X639572Y686816D02*
X748538Y577850D01*
X854710D01*
X641604Y552450D02*
X854710D01*
X838200Y372872D02*
Y408940D01*
X560578Y867918D02*
X723900D01*
X690797Y838486D02*
X758996D01*
X704900Y736550D02*
X735330Y706120D01*
X525018Y893572D02*
X711670D01*
X639572Y686816D02*
Y787261D01*
X698500Y717550D02*
X735330Y680720D01*
X689356Y807720D02*
X735330D01*
X661670Y717550D02*
X698500D01*
X639572Y787261D02*
X690797Y838486D01*
X660654Y782320D02*
X735330D01*
X661670Y736550D02*
X704900D01*
X1200965Y778055D02*
X1223010Y800100D01*
X1200965Y587047D02*
Y778055D01*
X1241044Y994664D02*
Y1096010D01*
X1223010Y976630D02*
X1241044Y994664D01*
X1122820Y1000760D02*
X1149490Y1027430D01*
X1169162Y948182D02*
X1223010Y1002030D01*
X1149490Y1027430D02*
X1223010D01*
X1240790Y1096264D02*
X1241044Y1096010D01*
X1115860Y1078230D02*
X1223010D01*
X1169162Y910590D02*
Y948182D01*
X1189228Y864327D02*
Y917448D01*
X1223010Y951230D01*
Y925830D02*
X1244600D01*
X1223010Y900430D02*
X1247140D01*
X1100620Y911860D02*
X1148220D01*
X1191768Y577850D02*
X1200965Y587047D01*
X727710Y1080770D02*
X728982D01*
X731522Y1083310D02*
X769620D01*
X728982Y1080770D02*
X731522Y1083310D01*
X708289Y1072251D02*
Y1088761D01*
Y1072251D02*
X817880Y962660D01*
X801370D02*
X817880D01*
X833120D01*
X774700Y989330D02*
X801370Y962660D01*
X696620Y989330D02*
X774700D01*
X768350Y963930D02*
X772160Y960120D01*
Y883920D02*
Y960120D01*
X620268Y928878D02*
X657450Y966060D01*
X673350D01*
X696620Y989330D01*
X707390Y1089660D02*
X708289Y1088761D01*
X799592Y929132D02*
X833120Y962660D01*
X516820Y928878D02*
X620268D01*
X724192D01*
X738670Y914400D01*
X833120Y962660D02*
X869442Y998982D01*
Y1038822D01*
X849999Y1016000D02*
Y1016570D01*
X833820D02*
X849999D01*
X811530Y1038860D02*
X833820Y1016570D01*
X799592Y929132D02*
X1064514D01*
X454820Y970080D02*
Y1018352D01*
Y957580D02*
Y970080D01*
X1079030Y914616D02*
Y1041400D01*
X516820Y947580D02*
Y957580D01*
Y928878D02*
Y947580D01*
X1064514Y929132D02*
X1079030Y914616D01*
X474980Y782320D02*
X560578Y867918D01*
X456946Y825500D02*
X525018Y893572D01*
X456946Y692404D02*
Y825500D01*
Y692404D02*
X482600Y666750D01*
X527304D01*
X1029751Y704850D02*
X1189228Y864327D01*
X1065276Y806704D02*
X1169162Y910590D01*
X1074554Y702444D02*
X1223010Y850900D01*
X1060450Y662940D02*
X1223010Y825500D01*
X1007110Y577850D02*
X1191768D01*
X1045718Y694466D02*
X1201420Y850168D01*
X486820Y1007580D02*
X496820D01*
X476820D02*
X486820D01*
X1079030Y890270D02*
X1100620Y911860D01*
X1043301Y1096264D02*
X1240790D01*
X987552Y1040515D02*
X1043301Y1096264D01*
X1079030Y1041400D02*
X1115860Y1078230D01*
X617108Y1033432D02*
X665480Y985060D01*
X469900Y1033432D02*
X617108D01*
X454820Y1018352D02*
X469900Y1033432D01*
D48*
X474980Y807720D02*
D03*
Y782320D02*
D03*
X1223010Y749300D02*
D03*
Y774700D02*
D03*
Y900430D02*
D03*
Y925830D02*
D03*
Y951230D02*
D03*
Y976630D02*
D03*
Y850900D02*
D03*
Y825500D02*
D03*
Y1027430D02*
D03*
Y800100D02*
D03*
Y1002030D02*
D03*
Y1052830D02*
D03*
Y1078230D02*
D03*
Y723900D02*
D03*
Y698500D02*
D03*
Y876300D02*
D03*
D49*
X800100Y910590D02*
D03*
Y879590D02*
D03*
D50*
X1007110Y400050D02*
D03*
Y425450D02*
D03*
Y450850D02*
D03*
Y476250D02*
D03*
Y501650D02*
D03*
Y527050D02*
D03*
Y552450D02*
D03*
Y577850D02*
D03*
Y603250D02*
D03*
Y628650D02*
D03*
Y654050D02*
D03*
Y679450D02*
D03*
Y704850D02*
D03*
Y730250D02*
D03*
Y755650D02*
D03*
Y781050D02*
D03*
Y806450D02*
D03*
Y831850D02*
D03*
Y857250D02*
D03*
Y882650D02*
D03*
X854710Y400050D02*
D03*
Y425450D02*
D03*
Y450850D02*
D03*
Y476250D02*
D03*
Y501650D02*
D03*
Y527050D02*
D03*
Y552450D02*
D03*
Y577850D02*
D03*
Y603250D02*
D03*
Y628650D02*
D03*
Y654050D02*
D03*
Y679450D02*
D03*
Y704850D02*
D03*
Y730250D02*
D03*
Y755650D02*
D03*
Y781050D02*
D03*
Y806450D02*
D03*
Y831850D02*
D03*
Y857250D02*
D03*
X735330Y706120D02*
D03*
Y731520D02*
D03*
Y756920D02*
D03*
Y782320D02*
D03*
Y807720D02*
D03*
X516820Y967580D02*
D03*
Y947580D02*
D03*
X476820Y1007580D02*
D03*
X496820D02*
D03*
D51*
X854710Y882650D02*
D03*
D52*
X735330Y680720D02*
D03*
D53*
X1122820Y822960D02*
D03*
X513080Y516890D02*
D03*
Y695960D02*
D03*
D54*
X1122820Y1000760D02*
D03*
X1148220Y911860D02*
D03*
X513080Y440690D02*
D03*
Y619760D02*
D03*
D55*
X769620Y1096010D02*
D03*
Y1083310D02*
D03*
D56*
Y1070610D02*
D03*
D57*
X665480Y985060D02*
D03*
D58*
Y1089660D02*
D03*
D59*
X454820Y957580D02*
D03*
D60*
X516820D02*
D03*
D61*
X486820Y1007580D02*
D03*
D62*
X454820Y945080D02*
D03*
Y970080D02*
D03*
D63*
X872490Y1154430D02*
D03*
Y1219200D02*
D03*
X1106170Y337820D02*
D03*
X772160Y883920D02*
D03*
X778510Y763270D02*
D03*
X830580Y711200D02*
D03*
X727710Y1080770D02*
D03*
X765810Y963930D02*
D03*
X707390Y1089660D02*
D03*
X852170Y1016000D02*
D03*
X811530Y1038860D02*
D03*
D64*
X689356Y807720D02*
D03*
X871210Y842528D02*
D03*
X742188Y858266D02*
D03*
X1060450Y662940D02*
D03*
X660654Y782320D02*
D03*
X1074554Y702444D02*
D03*
X1201420Y850168D02*
D03*
X869442Y1038822D02*
D03*
X987552Y1040515D02*
D03*
M02*
