G04*
G04 #@! TF.GenerationSoftware,Altium Limited,Altium Designer,23.1.1 (15)*
G04*
G04 Layer_Color=2752767*
%FSLAX44Y44*%
%MOMM*%
G71*
G04*
G04 #@! TF.SameCoordinates,D6B2EDEF-5A9D-4844-A5D7-26F624485CE4*
G04*
G04*
G04 #@! TF.FilePolarity,Positive*
G04*
G01*
G75*
%ADD10C,0.1270*%
%ADD66C,0.1693*%
D10*
X474980Y802640D02*
X477520Y805180D01*
X480060D01*
X477520Y807720D01*
X480060Y810260D01*
X477520D01*
X474980Y812800D01*
X472440Y810260D01*
X469900D01*
X472440Y807720D01*
X469900Y805180D01*
X472440D01*
X474980Y802640D01*
Y777240D02*
X477520Y779780D01*
X480060D01*
X477520Y782320D01*
X480060Y784860D01*
X477520D01*
X474980Y787400D01*
X472440Y784860D01*
X469900D01*
X472440Y782320D01*
X469900Y779780D01*
X472440D01*
X474980Y777240D01*
X795020Y905510D02*
X797560Y910590D01*
X795020Y915670D01*
X800100Y913130D01*
X805180Y915670D01*
X802640Y910590D01*
X805180Y905510D01*
X800100Y908050D01*
X795020Y905510D01*
Y874510D02*
X797560Y879590D01*
X795020Y884670D01*
X800100Y882130D01*
X805180Y884670D01*
X802640Y879590D01*
X805180Y874510D01*
X800100Y877050D01*
X795020Y874510D01*
X1004570Y397510D02*
Y394970D01*
X1009650D01*
Y397510D01*
X1012190D01*
Y402590D01*
X1009650D01*
Y405130D01*
X1004570D01*
Y402590D01*
X1002030D01*
Y397510D01*
X1004570D01*
Y422910D02*
Y420370D01*
X1009650D01*
Y422910D01*
X1012190D01*
Y427990D01*
X1009650D01*
Y430530D01*
X1004570D01*
Y427990D01*
X1002030D01*
Y422910D01*
X1004570D01*
Y448310D02*
Y445770D01*
X1009650D01*
Y448310D01*
X1012190D01*
Y453390D01*
X1009650D01*
Y455930D01*
X1004570D01*
Y453390D01*
X1002030D01*
Y448310D01*
X1004570D01*
Y473710D02*
Y471170D01*
X1009650D01*
Y473710D01*
X1012190D01*
Y478790D01*
X1009650D01*
Y481330D01*
X1004570D01*
Y478790D01*
X1002030D01*
Y473710D01*
X1004570D01*
Y499110D02*
Y496570D01*
X1009650D01*
Y499110D01*
X1012190D01*
Y504190D01*
X1009650D01*
Y506730D01*
X1004570D01*
Y504190D01*
X1002030D01*
Y499110D01*
X1004570D01*
Y524510D02*
Y521970D01*
X1009650D01*
Y524510D01*
X1012190D01*
Y529590D01*
X1009650D01*
Y532130D01*
X1004570D01*
Y529590D01*
X1002030D01*
Y524510D01*
X1004570D01*
Y549910D02*
Y547370D01*
X1009650D01*
Y549910D01*
X1012190D01*
Y554990D01*
X1009650D01*
Y557530D01*
X1004570D01*
Y554990D01*
X1002030D01*
Y549910D01*
X1004570D01*
Y575310D02*
Y572770D01*
X1009650D01*
Y575310D01*
X1012190D01*
Y580390D01*
X1009650D01*
Y582930D01*
X1004570D01*
Y580390D01*
X1002030D01*
Y575310D01*
X1004570D01*
Y600710D02*
Y598170D01*
X1009650D01*
Y600710D01*
X1012190D01*
Y605790D01*
X1009650D01*
Y608330D01*
X1004570D01*
Y605790D01*
X1002030D01*
Y600710D01*
X1004570D01*
Y626110D02*
Y623570D01*
X1009650D01*
Y626110D01*
X1012190D01*
Y631190D01*
X1009650D01*
Y633730D01*
X1004570D01*
Y631190D01*
X1002030D01*
Y626110D01*
X1004570D01*
Y651510D02*
Y648970D01*
X1009650D01*
Y651510D01*
X1012190D01*
Y656590D01*
X1009650D01*
Y659130D01*
X1004570D01*
Y656590D01*
X1002030D01*
Y651510D01*
X1004570D01*
Y676910D02*
Y674370D01*
X1009650D01*
Y676910D01*
X1012190D01*
Y681990D01*
X1009650D01*
Y684530D01*
X1004570D01*
Y681990D01*
X1002030D01*
Y676910D01*
X1004570D01*
Y702310D02*
Y699770D01*
X1009650D01*
Y702310D01*
X1012190D01*
Y707390D01*
X1009650D01*
Y709930D01*
X1004570D01*
Y707390D01*
X1002030D01*
Y702310D01*
X1004570D01*
Y727710D02*
Y725170D01*
X1009650D01*
Y727710D01*
X1012190D01*
Y732790D01*
X1009650D01*
Y735330D01*
X1004570D01*
Y732790D01*
X1002030D01*
Y727710D01*
X1004570D01*
Y753110D02*
Y750570D01*
X1009650D01*
Y753110D01*
X1012190D01*
Y758190D01*
X1009650D01*
Y760730D01*
X1004570D01*
Y758190D01*
X1002030D01*
Y753110D01*
X1004570D01*
Y778510D02*
Y775970D01*
X1009650D01*
Y778510D01*
X1012190D01*
Y783590D01*
X1009650D01*
Y786130D01*
X1004570D01*
Y783590D01*
X1002030D01*
Y778510D01*
X1004570D01*
Y803910D02*
Y801370D01*
X1009650D01*
Y803910D01*
X1012190D01*
Y808990D01*
X1009650D01*
Y811530D01*
X1004570D01*
Y808990D01*
X1002030D01*
Y803910D01*
X1004570D01*
Y829310D02*
Y826770D01*
X1009650D01*
Y829310D01*
X1012190D01*
Y834390D01*
X1009650D01*
Y836930D01*
X1004570D01*
Y834390D01*
X1002030D01*
Y829310D01*
X1004570D01*
Y854710D02*
Y852170D01*
X1009650D01*
Y854710D01*
X1012190D01*
Y859790D01*
X1009650D01*
Y862330D01*
X1004570D01*
Y859790D01*
X1002030D01*
Y854710D01*
X1004570D01*
Y880110D02*
Y877570D01*
X1009650D01*
Y880110D01*
X1012190D01*
Y885190D01*
X1009650D01*
Y887730D01*
X1004570D01*
Y885190D01*
X1002030D01*
Y880110D01*
X1004570D01*
X852170Y397510D02*
Y394970D01*
X857250D01*
Y397510D01*
X859790D01*
Y402590D01*
X857250D01*
Y405130D01*
X852170D01*
Y402590D01*
X849630D01*
Y397510D01*
X852170D01*
Y422910D02*
Y420370D01*
X857250D01*
Y422910D01*
X859790D01*
Y427990D01*
X857250D01*
Y430530D01*
X852170D01*
Y427990D01*
X849630D01*
Y422910D01*
X852170D01*
Y448310D02*
Y445770D01*
X857250D01*
Y448310D01*
X859790D01*
Y453390D01*
X857250D01*
Y455930D01*
X852170D01*
Y453390D01*
X849630D01*
Y448310D01*
X852170D01*
Y473710D02*
Y471170D01*
X857250D01*
Y473710D01*
X859790D01*
Y478790D01*
X857250D01*
Y481330D01*
X852170D01*
Y478790D01*
X849630D01*
Y473710D01*
X852170D01*
Y499110D02*
Y496570D01*
X857250D01*
Y499110D01*
X859790D01*
Y504190D01*
X857250D01*
Y506730D01*
X852170D01*
Y504190D01*
X849630D01*
Y499110D01*
X852170D01*
Y524510D02*
Y521970D01*
X857250D01*
Y524510D01*
X859790D01*
Y529590D01*
X857250D01*
Y532130D01*
X852170D01*
Y529590D01*
X849630D01*
Y524510D01*
X852170D01*
Y549910D02*
Y547370D01*
X857250D01*
Y549910D01*
X859790D01*
Y554990D01*
X857250D01*
Y557530D01*
X852170D01*
Y554990D01*
X849630D01*
Y549910D01*
X852170D01*
Y575310D02*
Y572770D01*
X857250D01*
Y575310D01*
X859790D01*
Y580390D01*
X857250D01*
Y582930D01*
X852170D01*
Y580390D01*
X849630D01*
Y575310D01*
X852170D01*
Y600710D02*
Y598170D01*
X857250D01*
Y600710D01*
X859790D01*
Y605790D01*
X857250D01*
Y608330D01*
X852170D01*
Y605790D01*
X849630D01*
Y600710D01*
X852170D01*
Y626110D02*
Y623570D01*
X857250D01*
Y626110D01*
X859790D01*
Y631190D01*
X857250D01*
Y633730D01*
X852170D01*
Y631190D01*
X849630D01*
Y626110D01*
X852170D01*
Y651510D02*
Y648970D01*
X857250D01*
Y651510D01*
X859790D01*
Y656590D01*
X857250D01*
Y659130D01*
X852170D01*
Y656590D01*
X849630D01*
Y651510D01*
X852170D01*
Y676910D02*
Y674370D01*
X857250D01*
Y676910D01*
X859790D01*
Y681990D01*
X857250D01*
Y684530D01*
X852170D01*
Y681990D01*
X849630D01*
Y676910D01*
X852170D01*
Y702310D02*
Y699770D01*
X857250D01*
Y702310D01*
X859790D01*
Y707390D01*
X857250D01*
Y709930D01*
X852170D01*
Y707390D01*
X849630D01*
Y702310D01*
X852170D01*
Y727710D02*
Y725170D01*
X857250D01*
Y727710D01*
X859790D01*
Y732790D01*
X857250D01*
Y735330D01*
X852170D01*
Y732790D01*
X849630D01*
Y727710D01*
X852170D01*
Y753110D02*
Y750570D01*
X857250D01*
Y753110D01*
X859790D01*
Y758190D01*
X857250D01*
Y760730D01*
X852170D01*
Y758190D01*
X849630D01*
Y753110D01*
X852170D01*
Y778510D02*
Y775970D01*
X857250D01*
Y778510D01*
X859790D01*
Y783590D01*
X857250D01*
Y786130D01*
X852170D01*
Y783590D01*
X849630D01*
Y778510D01*
X852170D01*
Y803910D02*
Y801370D01*
X857250D01*
Y803910D01*
X859790D01*
Y808990D01*
X857250D01*
Y811530D01*
X852170D01*
Y808990D01*
X849630D01*
Y803910D01*
X852170D01*
Y829310D02*
Y826770D01*
X857250D01*
Y829310D01*
X859790D01*
Y834390D01*
X857250D01*
Y836930D01*
X852170D01*
Y834390D01*
X849630D01*
Y829310D01*
X852170D01*
Y854710D02*
Y852170D01*
X857250D01*
Y854710D01*
X859790D01*
Y859790D01*
X857250D01*
Y862330D01*
X852170D01*
Y859790D01*
X849630D01*
Y854710D01*
X852170D01*
Y880110D02*
Y877570D01*
X857250D01*
Y880110D01*
X859790D01*
Y885190D01*
X857250D01*
Y887730D01*
X852170D01*
Y885190D01*
X849630D01*
Y880110D01*
X852170D01*
X732790Y678180D02*
Y675640D01*
X737870D01*
Y678180D01*
X740410D01*
Y683260D01*
X737870D01*
Y685800D01*
X732790D01*
Y683260D01*
X730250D01*
Y678180D01*
X732790D01*
Y703580D02*
Y701040D01*
X737870D01*
Y703580D01*
X740410D01*
Y708660D01*
X737870D01*
Y711200D01*
X732790D01*
Y708660D01*
X730250D01*
Y703580D01*
X732790D01*
Y728980D02*
Y726440D01*
X737870D01*
Y728980D01*
X740410D01*
Y734060D01*
X737870D01*
Y736600D01*
X732790D01*
Y734060D01*
X730250D01*
Y728980D01*
X732790D01*
Y754380D02*
Y751840D01*
X737870D01*
Y754380D01*
X740410D01*
Y759460D01*
X737870D01*
Y762000D01*
X732790D01*
Y759460D01*
X730250D01*
Y754380D01*
X732790D01*
Y779780D02*
Y777240D01*
X737870D01*
Y779780D01*
X740410D01*
Y784860D01*
X737870D01*
Y787400D01*
X732790D01*
Y784860D01*
X730250D01*
Y779780D01*
X732790D01*
Y805180D02*
Y802640D01*
X737870D01*
Y805180D01*
X740410D01*
Y810260D01*
X737870D01*
Y812800D01*
X732790D01*
Y810260D01*
X730250D01*
Y805180D01*
X732790D01*
X1117740Y817880D02*
X1120280Y822960D01*
X1117740Y828040D01*
X1122820Y825500D01*
X1127900Y828040D01*
X1125360Y822960D01*
X1127900Y817880D01*
X1122820Y820420D01*
X1117740Y817880D01*
Y995680D02*
X1120280Y1000760D01*
X1117740Y1005840D01*
X1122820Y1003300D01*
X1127900Y1005840D01*
X1125360Y1000760D01*
X1127900Y995680D01*
X1122820Y998220D01*
X1117740Y995680D01*
X1143140Y906780D02*
X1145680Y911860D01*
X1143140Y916940D01*
X1148220Y914400D01*
X1153300Y916940D01*
X1150760Y911860D01*
X1153300Y906780D01*
X1148220Y909320D01*
X1143140Y906780D01*
X1223010Y744220D02*
X1217930Y754380D01*
X1228090D01*
X1223010Y744220D01*
Y769620D02*
X1217930Y779780D01*
X1228090D01*
X1223010Y769620D01*
Y895350D02*
X1217930Y905510D01*
X1228090D01*
X1223010Y895350D01*
Y920750D02*
X1217930Y930910D01*
X1228090D01*
X1223010Y920750D01*
Y946150D02*
X1217930Y956310D01*
X1228090D01*
X1223010Y946150D01*
Y971550D02*
X1217930Y981710D01*
X1228090D01*
X1223010Y971550D01*
Y845820D02*
X1217930Y855980D01*
X1228090D01*
X1223010Y845820D01*
Y820420D02*
X1217930Y830580D01*
X1228090D01*
X1223010Y820420D01*
Y1022350D02*
X1217930Y1032510D01*
X1228090D01*
X1223010Y1022350D01*
Y795020D02*
X1217930Y805180D01*
X1228090D01*
X1223010Y795020D01*
Y996950D02*
X1217930Y1007110D01*
X1228090D01*
X1223010Y996950D01*
Y1047750D02*
X1217930Y1057910D01*
X1228090D01*
X1223010Y1047750D01*
Y1073150D02*
X1217930Y1083310D01*
X1228090D01*
X1223010Y1073150D01*
Y718820D02*
X1217930Y728980D01*
X1228090D01*
X1223010Y718820D01*
Y693420D02*
X1217930Y703580D01*
X1228090D01*
X1223010Y693420D01*
Y871220D02*
X1217930Y881380D01*
X1228090D01*
X1223010Y871220D01*
X508000Y511810D02*
X510540Y516890D01*
X508000Y521970D01*
X513080Y519430D01*
X518160Y521970D01*
X515620Y516890D01*
X518160Y511810D01*
X513080Y514350D01*
X508000Y511810D01*
Y435610D02*
X510540Y440690D01*
X508000Y445770D01*
X513080Y443230D01*
X518160Y445770D01*
X515620Y440690D01*
X518160Y435610D01*
X513080Y438150D01*
X508000Y435610D01*
X764540Y1090930D02*
Y1101090D01*
X774700D01*
Y1090930D01*
X764540D01*
Y1078230D02*
Y1088390D01*
X774700D01*
Y1078230D01*
X764540D01*
Y1065530D02*
Y1075690D01*
X774700D01*
Y1065530D01*
X764540D01*
X454820Y940000D02*
X449740Y950160D01*
X459900D01*
X454820Y940000D01*
X516820Y962500D02*
X511740Y972660D01*
X521900D01*
X516820Y962500D01*
Y942500D02*
X511740Y952660D01*
X521900D01*
X516820Y942500D01*
X476820Y1002500D02*
X471740Y1012660D01*
X481900D01*
X476820Y1002500D01*
X496820D02*
X491740Y1012660D01*
X501900D01*
X496820Y1002500D01*
X454820Y965000D02*
X449740Y975160D01*
X459900D01*
X454820Y965000D01*
X508000Y690880D02*
X510540Y695960D01*
X508000Y701040D01*
X513080Y698500D01*
X518160Y701040D01*
X515620Y695960D01*
X518160Y690880D01*
X513080Y693420D01*
X508000Y690880D01*
Y614680D02*
X510540Y619760D01*
X508000Y624840D01*
X513080Y622300D01*
X518160Y624840D01*
X515620Y619760D01*
X518160Y614680D01*
X513080Y617220D01*
X508000Y614680D01*
X867410Y1154430D02*
X872490Y1159510D01*
X877570Y1154430D01*
X872490Y1149350D01*
X867410Y1154430D01*
Y1219200D02*
X872490Y1224280D01*
X877570Y1219200D01*
X872490Y1214120D01*
X867410Y1219200D01*
X1101090Y337820D02*
X1106170Y342900D01*
X1111250Y337820D01*
X1106170Y332740D01*
X1101090Y337820D01*
X684276Y802640D02*
X686816D01*
X689356Y805180D01*
X691896Y802640D01*
X694436D01*
Y805180D01*
X691896Y807720D01*
X694436Y810260D01*
Y812800D01*
X691896D01*
X689356Y810260D01*
X686816Y812800D01*
X684276D01*
Y810260D01*
X686816Y807720D01*
X684276Y805180D01*
Y802640D01*
X866130Y837448D02*
X868670D01*
X871210Y839988D01*
X873750Y837448D01*
X876290D01*
Y839988D01*
X873750Y842528D01*
X876290Y845068D01*
Y847608D01*
X873750D01*
X871210Y845068D01*
X868670Y847608D01*
X866130D01*
Y845068D01*
X868670Y842528D01*
X866130Y839988D01*
Y837448D01*
X737108Y853186D02*
X739648D01*
X742188Y855726D01*
X744728Y853186D01*
X747268D01*
Y855726D01*
X744728Y858266D01*
X747268Y860806D01*
Y863346D01*
X744728D01*
X742188Y860806D01*
X739648Y863346D01*
X737108D01*
Y860806D01*
X739648Y858266D01*
X737108Y855726D01*
Y853186D01*
X767080Y883920D02*
X772160Y889000D01*
X777240Y883920D01*
X772160Y878840D01*
X767080Y883920D01*
X773430Y763270D02*
X778510Y768350D01*
X783590Y763270D01*
X778510Y758190D01*
X773430Y763270D01*
X825500Y711200D02*
X830580Y716280D01*
X835660Y711200D01*
X830580Y706120D01*
X825500Y711200D01*
X1055370Y657860D02*
X1057910D01*
X1060450Y660400D01*
X1062990Y657860D01*
X1065530D01*
Y660400D01*
X1062990Y662940D01*
X1065530Y665480D01*
Y668020D01*
X1062990D01*
X1060450Y665480D01*
X1057910Y668020D01*
X1055370D01*
Y665480D01*
X1057910Y662940D01*
X1055370Y660400D01*
Y657860D01*
X655574Y777240D02*
X658114D01*
X660654Y779780D01*
X663194Y777240D01*
X665734D01*
Y779780D01*
X663194Y782320D01*
X665734Y784860D01*
Y787400D01*
X663194D01*
X660654Y784860D01*
X658114Y787400D01*
X655574D01*
Y784860D01*
X658114Y782320D01*
X655574Y779780D01*
Y777240D01*
X1069474Y697364D02*
X1072014D01*
X1074554Y699904D01*
X1077094Y697364D01*
X1079634D01*
Y699904D01*
X1077094Y702444D01*
X1079634Y704984D01*
Y707524D01*
X1077094D01*
X1074554Y704984D01*
X1072014Y707524D01*
X1069474D01*
Y704984D01*
X1072014Y702444D01*
X1069474Y699904D01*
Y697364D01*
X1196340Y845088D02*
X1198880D01*
X1201420Y847628D01*
X1203960Y845088D01*
X1206500D01*
Y847628D01*
X1203960Y850168D01*
X1206500Y852708D01*
Y855248D01*
X1203960D01*
X1201420Y852708D01*
X1198880Y855248D01*
X1196340D01*
Y852708D01*
X1198880Y850168D01*
X1196340Y847628D01*
Y845088D01*
X722630Y1080770D02*
X727710Y1085850D01*
X732790Y1080770D01*
X727710Y1075690D01*
X722630Y1080770D01*
X760730Y963930D02*
X765810Y969010D01*
X770890Y963930D01*
X765810Y958850D01*
X760730Y963930D01*
X702310Y1089660D02*
X707390Y1094740D01*
X712470Y1089660D01*
X707390Y1084580D01*
X702310Y1089660D01*
X847090Y1016000D02*
X852170Y1021080D01*
X857250Y1016000D01*
X852170Y1010920D01*
X847090Y1016000D01*
X864362Y1033742D02*
X866902D01*
X869442Y1036282D01*
X871982Y1033742D01*
X874522D01*
Y1036282D01*
X871982Y1038822D01*
X874522Y1041362D01*
Y1043902D01*
X871982D01*
X869442Y1041362D01*
X866902Y1043902D01*
X864362D01*
Y1041362D01*
X866902Y1038822D01*
X864362Y1036282D01*
Y1033742D01*
X806450Y1038860D02*
X811530Y1043940D01*
X816610Y1038860D01*
X811530Y1033780D01*
X806450Y1038860D01*
X982472Y1035435D02*
X985012D01*
X987552Y1037975D01*
X990092Y1035435D01*
X992632D01*
Y1037975D01*
X990092Y1040515D01*
X992632Y1043055D01*
Y1045595D01*
X990092D01*
X987552Y1043055D01*
X985012Y1045595D01*
X982472D01*
Y1043055D01*
X985012Y1040515D01*
X982472Y1037975D01*
Y1035435D01*
D66*
X670560Y985060D02*
G03*
X670560Y985060I-5080J0D01*
G01*
Y1089660D02*
G03*
X670560Y1089660I-5080J0D01*
G01*
M02*
