G04*
G04 #@! TF.GenerationSoftware,Altium Limited,Altium Designer,23.1.1 (15)*
G04*
G04 Layer_Color=16711935*
%FSLAX44Y44*%
%MOMM*%
G71*
G04*
G04 #@! TF.SameCoordinates,D6B2EDEF-5A9D-4844-A5D7-26F624485CE4*
G04*
G04*
G04 #@! TF.FilePolarity,Negative*
G04*
G01*
G75*
%ADD24R,1.3032X1.9032*%
%ADD25R,1.7032X1.5032*%
%ADD30C,1.9812*%
%ADD31C,1.5032*%
%ADD32C,1.7032*%
%ADD33R,1.7032X1.7032*%
%ADD34R,1.7032X1.7032*%
%ADD35R,1.4032X1.4032*%
%ADD36C,1.4032*%
%ADD37O,2.2032X1.2032*%
%ADD38R,2.2032X1.2032*%
%ADD39C,2.2032*%
%ADD40R,2.2032X2.2032*%
%ADD41O,2.2032X4.7032*%
%ADD42O,2.2032X4.2032*%
%ADD43O,4.2032X2.2032*%
%ADD44C,1.7032*%
%ADD45C,1.4732*%
%ADD46C,1.2032*%
D24*
X711670Y896620D02*
D03*
X738670D02*
D03*
X1052030Y890270D02*
D03*
X1079030D02*
D03*
D25*
X661670Y736550D02*
D03*
Y717550D02*
D03*
D30*
X474980Y807720D02*
D03*
Y782320D02*
D03*
X1223010Y749300D02*
D03*
Y774700D02*
D03*
Y900430D02*
D03*
Y925830D02*
D03*
Y951230D02*
D03*
Y976630D02*
D03*
Y850900D02*
D03*
Y825500D02*
D03*
Y1027430D02*
D03*
Y800100D02*
D03*
Y1002030D02*
D03*
Y1052830D02*
D03*
Y1078230D02*
D03*
Y723900D02*
D03*
Y698500D02*
D03*
Y876300D02*
D03*
D31*
X800100Y910590D02*
D03*
Y879590D02*
D03*
D32*
X1007110Y400050D02*
D03*
Y425450D02*
D03*
Y450850D02*
D03*
Y476250D02*
D03*
Y501650D02*
D03*
Y527050D02*
D03*
Y552450D02*
D03*
Y577850D02*
D03*
Y603250D02*
D03*
Y628650D02*
D03*
Y654050D02*
D03*
Y679450D02*
D03*
Y704850D02*
D03*
Y730250D02*
D03*
Y755650D02*
D03*
Y781050D02*
D03*
Y806450D02*
D03*
Y831850D02*
D03*
Y857250D02*
D03*
Y882650D02*
D03*
X854710Y400050D02*
D03*
Y425450D02*
D03*
Y450850D02*
D03*
Y476250D02*
D03*
Y501650D02*
D03*
Y527050D02*
D03*
Y552450D02*
D03*
Y577850D02*
D03*
Y603250D02*
D03*
Y628650D02*
D03*
Y654050D02*
D03*
Y679450D02*
D03*
Y704850D02*
D03*
Y730250D02*
D03*
Y755650D02*
D03*
Y781050D02*
D03*
Y806450D02*
D03*
Y831850D02*
D03*
Y857250D02*
D03*
X735330Y706120D02*
D03*
Y731520D02*
D03*
Y756920D02*
D03*
Y782320D02*
D03*
Y807720D02*
D03*
X516820Y967580D02*
D03*
Y947580D02*
D03*
X476820Y1007580D02*
D03*
X496820D02*
D03*
D33*
X854710Y882650D02*
D03*
D34*
X735330Y680720D02*
D03*
D35*
X1122820Y822960D02*
D03*
X513080Y516890D02*
D03*
Y695960D02*
D03*
D36*
X1122820Y1000760D02*
D03*
X1148220Y911860D02*
D03*
X513080Y440690D02*
D03*
Y619760D02*
D03*
D37*
X769620Y1096010D02*
D03*
Y1083310D02*
D03*
D38*
Y1070610D02*
D03*
D39*
X665480Y985060D02*
D03*
D40*
Y1089660D02*
D03*
D41*
X454820Y957580D02*
D03*
D42*
X516820D02*
D03*
D43*
X486820Y1007580D02*
D03*
D44*
X454820Y945080D02*
D03*
Y970080D02*
D03*
D45*
X872490Y1154430D02*
D03*
Y1219200D02*
D03*
X1106170Y337820D02*
D03*
X772160Y883920D02*
D03*
X778510Y763270D02*
D03*
X830580Y711200D02*
D03*
X727710Y1080770D02*
D03*
X765810Y963930D02*
D03*
X707390Y1089660D02*
D03*
X852170Y1016000D02*
D03*
X811530Y1038860D02*
D03*
D46*
X689356Y807720D02*
D03*
X871210Y842528D02*
D03*
X742188Y858266D02*
D03*
X1060450Y662940D02*
D03*
X660654Y782320D02*
D03*
X1074554Y702444D02*
D03*
X1201420Y850168D02*
D03*
X869442Y1038822D02*
D03*
X987552Y1040515D02*
D03*
M02*
