M48
;Layer_Color=9474304
;FILE_FORMAT=4:2
METRIC,LZ
;TYPE=PLATED
T1F00S00C0.60
T2F00S00C0.70
T3F00S00C0.71
T4F00S00C0.75
T5F00S00C0.90
T6F00S00C1.00
T7F00S00C1.20
T8F00S00C1.27
%
T01
X010604Y006629
X010746Y007024
X006607Y007823
X006894Y008077
X007422Y008583
X008712Y008425
X008694Y010388
X009876Y010405
X012014Y008502
T02
X005131Y004407
Y005169
Y006198
Y00696
X008001Y008796
Y009106
X011482Y009119
X011228Y00823
Y010008
T03
X011062Y003378
X008306Y007112
X007785Y007633
X007722Y008839
X007658Y009639
X007277Y010808
X007074Y010897
X008115Y010389
X008522Y01016
X008725Y011544
Y012192
T04
X007696Y010706
Y010833
Y01096
T05
X008547Y004001
Y004254
Y004508
Y004762
Y005017
Y005271
Y005524
Y005778
Y006033
Y006287
Y00654
Y006794
Y007049
Y007303
Y007557
Y007811
X010071
Y007557
Y007303
Y007049
Y006794
Y00654
Y006287
Y006033
Y005778
Y005524
Y005271
Y005017
Y004762
Y004508
Y004254
Y004001
X007353Y006807
Y007061
Y007315
Y007569
Y007823
Y008077
X008547Y008064
Y008318
Y008572
Y008826
X010071
Y008572
Y008318
Y008064
T06
X01223Y006985
Y007239
Y007493
Y007747
X005168Y009476
Y009676
X004968Y010076
X004768
X004548Y009701
Y009451
X01223Y009512
Y009258
Y009004
Y008763
Y008509
Y008255
Y008001
Y009766
Y01002
Y010274
Y010528
Y010782
T07
X006655Y009851
Y010897
T08
X00475Y007823
Y008077
M30
