G04*
G04 #@! TF.GenerationSoftware,Altium Limited,Altium Designer,23.1.1 (15)*
G04*
G04 Layer_Color=65535*
%FSLAX44Y44*%
%MOMM*%
G71*
G04*
G04 #@! TF.SameCoordinates,D6B2EDEF-5A9D-4844-A5D7-26F624485CE4*
G04*
G04*
G04 #@! TF.FilePolarity,Positive*
G04*
G01*
G75*
%ADD10C,0.1270*%
%ADD11C,0.2000*%
%ADD12C,0.6000*%
%ADD13C,0.2500*%
%ADD14C,0.2540*%
%ADD15C,0.1500*%
%ADD16R,2.8000X0.8000*%
D10*
X552450Y770890D02*
G03*
X552450Y819150I0J24130D01*
G01*
X436880Y764540D02*
X527050D01*
Y825500D01*
X436880D02*
X527050D01*
Y770890D02*
X552450D01*
X527050Y819150D02*
X552450D01*
X436880Y764540D02*
Y775970D01*
X462280D01*
Y814070D01*
X436880D02*
X462280D01*
X436880D02*
Y825500D01*
D11*
X789879Y906643D02*
G03*
X790041Y883197I10221J-11652D01*
G01*
X810159Y883297D02*
G03*
X810321Y906742I-10059J11793D01*
G01*
X924560Y909850D02*
G03*
X937260Y909850I6350J0D01*
G01*
X589280Y478790D02*
G03*
X589280Y478790I-76200J0D01*
G01*
X785627Y1103798D02*
G03*
X785627Y1062822I-16007J-20488D01*
G01*
X589280Y657860D02*
G03*
X589280Y657860I-76200J0D01*
G01*
X866410Y372850D02*
X995410D01*
X937260Y909850D02*
X995410D01*
X866410D02*
X924560D01*
X995410Y372850D02*
Y909850D01*
X866410Y372850D02*
Y909850D01*
X722630Y820420D02*
X748030D01*
X722630Y668020D02*
X748030D01*
X722630D02*
Y820420D01*
X748030Y668020D02*
Y820420D01*
X738480Y585590D02*
X746480D01*
X738480Y600590D02*
X746480D01*
X698250Y517120D02*
Y517370D01*
Y472120D02*
Y495620D01*
Y517370D02*
X762250D01*
Y450370D02*
Y450620D01*
Y472120D02*
Y495620D01*
Y517120D02*
Y517370D01*
X698250Y450370D02*
Y450620D01*
Y450370D02*
X762250D01*
X1097420Y746760D02*
Y1064260D01*
X1122820D01*
Y1089660D01*
X1148220D01*
Y1064260D02*
Y1089660D01*
Y1064260D02*
X1173620D01*
Y746760D02*
Y1064260D01*
X1097420Y746760D02*
X1173620D01*
X979020Y1083360D02*
X992020D01*
X870460Y1055770D02*
X902460D01*
X870460Y1105770D02*
X902460D01*
Y1055770D02*
Y1105770D01*
X870460Y1055770D02*
Y1105770D01*
X813920Y1076400D02*
X826920D01*
X785620Y1062822D02*
Y1103798D01*
X433840Y1063350D02*
X597840D01*
X433840Y1171850D02*
X597840D01*
X651480Y1010860D02*
X679480D01*
X651480D02*
Y1063860D01*
X679480Y1010860D02*
Y1063860D01*
X508820Y1002580D02*
X591820D01*
X445820D02*
X464820D01*
X445820Y979580D02*
Y1002580D01*
X591820Y912580D02*
Y1002580D01*
X445820Y912580D02*
X591820D01*
X445820Y935580D02*
X445820Y912580D01*
X438000Y839520D02*
X451000D01*
X448190Y380810D02*
Y388810D01*
X433190Y380810D02*
Y388810D01*
D12*
X879410Y899850D02*
G03*
X879410Y899850I-3000J0D01*
G01*
X883460Y1095770D02*
G03*
X883460Y1095770I-3000J0D01*
G01*
D13*
X855960Y895650D02*
G03*
X855960Y895650I-1250J0D01*
G01*
X860460Y1108320D02*
G03*
X860460Y1108320I-1250J0D01*
G01*
X785670Y1054310D02*
G03*
X785670Y1054310I-1250J0D01*
G01*
X560590Y1092200D02*
G03*
X560590Y1092200I-1250J0D01*
G01*
D14*
X438912Y848863D02*
Y833628D01*
X446530D01*
X449069Y836167D01*
Y846324D01*
X446530Y848863D01*
X438912D01*
X464304Y833628D02*
X454147D01*
X464304Y843785D01*
Y846324D01*
X461765Y848863D01*
X456686D01*
X454147Y846324D01*
X786130Y941065D02*
X796287Y925830D01*
Y941065D02*
X786130Y925830D01*
X801365D02*
X806443D01*
X803904D01*
Y941065D01*
X801365Y938526D01*
X848614Y933699D02*
Y921003D01*
X851153Y918464D01*
X856232D01*
X858771Y921003D01*
Y933699D01*
X863849Y918464D02*
X868927D01*
X866388D01*
Y933699D01*
X863849Y931160D01*
X724154Y844291D02*
X729232D01*
X726693D01*
Y829056D01*
X724154D01*
X729232D01*
X747007Y841752D02*
X744467Y844291D01*
X739389D01*
X736850Y841752D01*
Y831595D01*
X739389Y829056D01*
X744467D01*
X747007Y831595D01*
X762242Y841752D02*
X759703Y844291D01*
X754624D01*
X752085Y841752D01*
Y839213D01*
X754624Y836674D01*
X759703D01*
X762242Y834134D01*
Y831595D01*
X759703Y829056D01*
X754624D01*
X752085Y831595D01*
X767320Y829056D02*
Y844291D01*
X774938D01*
X777477Y841752D01*
Y836674D01*
X774938Y834134D01*
X767320D01*
X734565Y623312D02*
X732026Y625851D01*
X726947D01*
X724408Y623312D01*
Y613155D01*
X726947Y610616D01*
X732026D01*
X734565Y613155D01*
X749800Y625851D02*
X744721Y623312D01*
X739643Y618233D01*
Y613155D01*
X742182Y610616D01*
X747261D01*
X749800Y613155D01*
Y615694D01*
X747261Y618233D01*
X739643D01*
X684784Y541269D02*
Y526034D01*
X692402D01*
X694941Y528573D01*
Y531112D01*
X692402Y533652D01*
X684784D01*
X692402D01*
X694941Y536191D01*
Y538730D01*
X692402Y541269D01*
X684784D01*
X700019Y526034D02*
X705097D01*
X702558D01*
Y541269D01*
X700019Y538730D01*
X1099058Y1098296D02*
Y1113531D01*
X1106675D01*
X1109215Y1110992D01*
Y1105913D01*
X1106675Y1103374D01*
X1099058D01*
X1104136D02*
X1109215Y1098296D01*
X1114293Y1113531D02*
Y1103374D01*
X1119371Y1098296D01*
X1124450Y1103374D01*
Y1113531D01*
X1129528Y1098296D02*
X1134606D01*
X1132067D01*
Y1113531D01*
X1129528Y1110992D01*
X979424Y1126998D02*
Y1142233D01*
X987041D01*
X989581Y1139694D01*
Y1134615D01*
X987041Y1132076D01*
X979424D01*
X984502D02*
X989581Y1126998D01*
X1002277D02*
Y1142233D01*
X994659Y1134615D01*
X1004816D01*
X448561Y591816D02*
X446021Y594355D01*
X440943D01*
X438404Y591816D01*
Y581659D01*
X440943Y579120D01*
X446021D01*
X448561Y581659D01*
X463796Y579120D02*
X453639D01*
X463796Y589277D01*
Y591816D01*
X461257Y594355D01*
X456178D01*
X453639Y591816D01*
X851662Y1133597D02*
Y1120901D01*
X854201Y1118362D01*
X859279D01*
X861819Y1120901D01*
Y1133597D01*
X866897Y1131058D02*
X869436Y1133597D01*
X874515D01*
X877054Y1131058D01*
Y1128519D01*
X874515Y1125980D01*
X871975D01*
X874515D01*
X877054Y1123440D01*
Y1120901D01*
X874515Y1118362D01*
X869436D01*
X866897Y1120901D01*
X814324Y1120140D02*
Y1135375D01*
X821942D01*
X824481Y1132836D01*
Y1127757D01*
X821942Y1125218D01*
X814324D01*
X819402D02*
X824481Y1120140D01*
X839716Y1135375D02*
X829559D01*
Y1127757D01*
X834637Y1130297D01*
X837177D01*
X839716Y1127757D01*
Y1122679D01*
X837177Y1120140D01*
X832098D01*
X829559Y1122679D01*
X745236Y1133089D02*
Y1120393D01*
X747775Y1117854D01*
X752853D01*
X755393Y1120393D01*
Y1133089D01*
X770628Y1117854D02*
X760471D01*
X770628Y1128011D01*
Y1130550D01*
X768089Y1133089D01*
X763010D01*
X760471Y1130550D01*
X434340Y1195827D02*
Y1185670D01*
X439418Y1180592D01*
X444497Y1185670D01*
Y1195827D01*
X449575Y1180592D02*
Y1195827D01*
X457193D01*
X459732Y1193288D01*
Y1188210D01*
X457193Y1185670D01*
X449575D01*
X454653D02*
X459732Y1180592D01*
X464810D02*
X469888D01*
X467349D01*
Y1195827D01*
X464810Y1193288D01*
X653034Y1123437D02*
Y1108202D01*
X660651D01*
X663191Y1110741D01*
Y1120898D01*
X660651Y1123437D01*
X653034D01*
X668269Y1108202D02*
X673347D01*
X670808D01*
Y1123437D01*
X668269Y1120898D01*
X448307Y1041395D02*
X443228D01*
X445768D01*
Y1028699D01*
X443228Y1026160D01*
X440689D01*
X438150Y1028699D01*
X453385Y1026160D02*
X458463D01*
X455924D01*
Y1041395D01*
X453385Y1038856D01*
X438404Y883158D02*
Y898393D01*
X446021D01*
X448561Y895854D01*
Y890776D01*
X446021Y888236D01*
X438404D01*
X443482D02*
X448561Y883158D01*
X453639D02*
X458717D01*
X456178D01*
Y898393D01*
X453639Y895854D01*
X448561Y770886D02*
X446021Y773425D01*
X440943D01*
X438404Y770886D01*
Y760729D01*
X440943Y758190D01*
X446021D01*
X448561Y760729D01*
X453639Y758190D02*
X458717D01*
X456178D01*
Y773425D01*
X453639Y770886D01*
X443481Y425700D02*
X440942Y428239D01*
X435863D01*
X433324Y425700D01*
Y415543D01*
X435863Y413004D01*
X440942D01*
X443481Y415543D01*
X448559Y425700D02*
X451098Y428239D01*
X456177D01*
X458716Y425700D01*
Y423161D01*
X456177Y420621D01*
X453637D01*
X456177D01*
X458716Y418082D01*
Y415543D01*
X456177Y413004D01*
X451098D01*
X448559Y415543D01*
D15*
X512950Y560109D02*
Y570106D01*
X507952Y565107D02*
X517949D01*
X512950Y739179D02*
Y749176D01*
X507952Y744177D02*
X517949D01*
D16*
X665484Y1060860D02*
D03*
M02*
