M48
;Layer_Color=9474304
;FILE_FORMAT=4:4
METRIC,LZ
;TYPE=PLATED
T1F00S00C0.6000
T2F00S00C0.7000
T3F00S00C0.7112
T4F00S00C0.7500
T5F00S00C0.9000
T6F00S00C1.0000
T7F00S00C1.2000
T8F00S00C1.2700
%
T01
X0106045Y0066294
X01074554Y00702444
X00660654Y0078232
X00689356Y0080772
X00742188Y00858266
X0087121Y00842528
X00869442Y01038822
X00987552Y01040515
X0120142Y00850168
T02
X0051308Y0044069
Y0051689
Y0061976
Y0069596
X008001Y0087959
Y0091059
X0114822Y0091186
X0112282Y0082296
Y0100076
T03
X0110617Y0033782
X0083058Y007112
X0077851Y0076327
X0077216Y0088392
X0076581Y0096393
X0072771Y0108077
X0070739Y0108966
X0081153Y0103886
X0085217Y01016
X0087249Y0115443
Y012192
T04
X0076962Y0107061
Y0108331
Y0109601
T05
X0085471Y0040005
Y0042545
Y0045085
Y0047625
Y0050165
Y0052705
Y0055245
Y0057785
Y0060325
Y0062865
Y0065405
Y0067945
Y0070485
Y0073025
Y0075565
Y0078105
X0100711
Y0075565
Y0073025
Y0070485
Y0067945
Y0065405
Y0062865
Y0060325
Y0057785
Y0055245
Y0052705
Y0050165
Y0047625
Y0045085
Y0042545
Y0040005
X0073533Y0068072
Y0070612
Y0073152
Y0075692
Y0078232
Y0080772
X0085471Y0080645
Y0083185
Y0085725
Y0088265
X0100711
Y0085725
Y0083185
Y0080645
T06
X0122301Y006985
Y007239
Y007493
Y007747
X0051682Y0094758
Y0096758
X0049682Y0100758
X0047682
X0045482Y0097008
Y0094508
X0122301Y0095123
Y0092583
Y0090043
Y008763
Y008509
Y008255
Y008001
Y0097663
Y0100203
Y0102743
Y0105283
Y0107823
T07
X0066548Y0098506
Y0108966
T08
X0047498Y0078232
Y0080772
M30
